<?xml version="1.0" encoding="utf-8"?>
<!-- Generator: Adobe Illustrator 16.0.0, SVG Export Plug-In . SVG Version: 6.00 Build 0)  -->
<!DOCTYPE svg PUBLIC "-//W3C//DTD SVG 1.1//EN" "http://www.w3.org/Graphics/SVG/1.1/DTD/svg11.dtd">
<svg version="1.1" id="Calque_1" xmlns="http://www.w3.org/2000/svg" xmlns:xlink="http://www.w3.org/1999/xlink" x="0px" y="0px"
	 width="298.75px" height="79.248px" viewBox="0 0 298.75 79.248" enable-background="new 0 0 298.75 79.248" xml:space="preserve">
<g id="Vexels">
	<g>
		<path fill="#123555" d="M40.314,11.722c-0.021-0.131-0.074-0.151-0.189-0.151c-2.124,0.003-4.248,0.003-6.372,0
			c-0.122,0-0.166,0.023-0.165,0.158c0.013,0.82,0.013,1.641,0,2.46c-0.001,0.133,0.04,0.159,0.164,0.159
			c1.163-0.004,2.325-0.003,3.487-0.003c0.06,0,0.119,0,0.182,0c-0.013,0.181-0.066,0.338-0.127,0.495
			c-0.247,0.701-0.693,1.239-1.312,1.65c-0.59,0.362-1.235,0.545-1.921,0.604c-1.249,0.109-2.354-0.229-3.297-1.057
			c-0.568-0.498-0.952-1.12-1.208-1.826c-0.142-0.481-0.226-0.97-0.204-1.474c0.013-0.409,0.101-0.804,0.201-1.197
			c-0.01-0.003-0.014-0.006-0.018-0.009c0.008-0.015,0.021-0.029,0.021-0.044c0.981-2.728,4.3-3.68,6.547-1.938
			c0.087,0.067,0.124,0.037,0.184-0.023c0.628-0.631,1.258-1.262,1.896-1.889c0.078-0.077,0.095-0.12-0.001-0.198
			c-1.792-1.462-3.824-1.998-6.1-1.547c-1.604,0.32-2.938,1.133-4.01,2.38c-0.382,0.447-0.713,0.929-0.951,1.471
			c0.003,0.002,0.006,0.005,0.016,0.007c-0.022,0.038-0.05,0.075-0.063,0.115c-0.646,1.423-0.813,2.904-0.517,4.436
			c0.112,0.608,0.304,1.196,0.601,1.745c0.019,0.044,0.035,0.091,0.058,0.134c1.604,3.163,5.439,4.673,8.781,3.457
			c0.846-0.308,1.609-0.75,2.261-1.376c0.204-0.155,0.377-0.345,0.536-0.543C40.212,15.951,40.675,13.941,40.314,11.722z"/>
		<path fill="#123555" d="M14.405,5.762c2.101,0,4.202,0,6.304,0c0.508,0,0.824,0.318,0.824,0.829c0,4.203-0.003,8.405,0.004,12.607
			c0,0.468-0.362,0.837-0.831,0.831c-1.145-0.014-2.289-0.004-3.434-0.004c-0.146,0-0.146,0-0.146-0.135c0-1.743,0-3.486,0-5.229
			c0-0.137,0-0.137,0.145-0.137c0.532,0,1.063-0.002,1.597,0.001c0.09,0,0.124-0.025,0.136-0.121
			c0.079-0.652,0.165-1.304,0.253-1.954c0.019-0.096-0.013-0.122-0.104-0.122c-0.629,0.003-1.259,0-1.889,0.004
			c-0.104,0-0.139-0.025-0.137-0.128c0.013-0.48,0.001-0.96,0.02-1.44c0.003-0.128,0.038-0.263,0.088-0.382
			c0.136-0.317,0.42-0.414,0.729-0.428c0.409-0.019,0.82-0.014,1.23-0.018c0.146-0.001,0.15,0,0.15-0.149c0-0.553,0-1.106,0-1.66
			c0-0.151,0-0.158-0.155-0.165c-0.573-0.024-1.146-0.069-1.719-0.06c-0.722,0.012-1.359,0.245-1.868,0.774
			c-0.396,0.405-0.607,0.899-0.683,1.449c-0.045,0.354-0.042,0.714-0.051,1.071c-0.007,0.337-0.005,0.675,0.001,1.012
			c0.002,0.099-0.029,0.122-0.125,0.121c-0.536-0.003-1.065,0-1.604-0.004c-0.104-0.001-0.144,0.029-0.143,0.135
			c0.007,0.644,0.007,1.287,0,1.931c0,0.099,0.029,0.133,0.136,0.132c0.527-0.004,1.063-0.002,1.598-0.001
			c0.139,0,0.139,0,0.139,0.134c0,1.746,0,3.492,0.002,5.239c0,0.099-0.021,0.13-0.128,0.13c-2.229-0.003-4.466-0.002-6.7-0.002
			c-0.438,0-0.771-0.335-0.771-0.781c0-4.233,0-8.467,0-12.701c0-0.445,0.334-0.78,0.773-0.78
			C10.168,5.761,12.287,5.762,14.405,5.762z"/>
	</g>
	<g>
		<circle fill="#E6EBF1" cx="58.576" cy="18.121" r="12.623"/>
		<circle fill="#657E93" cx="53.816" cy="14.529" r="1.637"/>
		<circle fill="#657E93" cx="63.337" cy="14.529" r="1.637"/>
		<path fill="#657E93" d="M58.576,25.961c3.572,0,6.468-2.894,6.468-6.466H52.109C52.109,23.067,55.005,25.961,58.576,25.961z"/>
	</g>
	<g>
		<circle fill="#E6EBF1" cx="89.336" cy="18.121" r="12.622"/>
		<circle fill="#657E93" cx="84.576" cy="14.53" r="1.636"/>
		<circle fill="#657E93" cx="94.095" cy="14.53" r="1.636"/>
		<path fill="#657E93" d="M89.335,19.497c-3.566,0-6.467,2.893-6.467,6.466h12.934C95.802,22.39,92.908,19.497,89.335,19.497z"/>
	</g>
	<g>
		<path fill="#A0ADBD" d="M14.405,24.262c2.101,0,4.202,0,6.304,0c0.508,0,0.824,0.318,0.824,0.829
			c0,4.203-0.003,8.405,0.004,12.607c0,0.468-0.362,0.837-0.831,0.831c-1.145-0.014-2.289-0.004-3.434-0.004
			c-0.146,0-0.146,0-0.146-0.135c0-1.743,0-3.486,0-5.229c0-0.137,0-0.137,0.145-0.137c0.532,0,1.063-0.002,1.597,0.001
			c0.09,0,0.124-0.025,0.136-0.121c0.079-0.652,0.165-1.304,0.253-1.954c0.019-0.096-0.013-0.122-0.104-0.122
			c-0.629,0.003-1.259,0-1.889,0.004c-0.104,0-0.139-0.025-0.137-0.128c0.013-0.48,0.001-0.96,0.02-1.44
			c0.003-0.128,0.038-0.263,0.088-0.382c0.136-0.317,0.42-0.414,0.729-0.428c0.409-0.019,0.82-0.014,1.23-0.018
			c0.146-0.001,0.15,0,0.15-0.149c0-0.553,0-1.106,0-1.66c0-0.151,0-0.158-0.155-0.165c-0.573-0.024-1.146-0.069-1.719-0.06
			c-0.722,0.012-1.359,0.245-1.868,0.774c-0.396,0.405-0.607,0.899-0.683,1.449c-0.045,0.354-0.042,0.714-0.051,1.071
			c-0.007,0.337-0.005,0.675,0.001,1.012c0.002,0.099-0.029,0.122-0.125,0.121c-0.536-0.003-1.065,0-1.604-0.004
			c-0.104-0.001-0.144,0.029-0.143,0.135c0.007,0.644,0.007,1.287,0,1.931c0,0.099,0.029,0.133,0.136,0.132
			c0.527-0.004,1.063-0.002,1.598-0.001c0.139,0,0.139,0,0.139,0.134c0,1.746,0,3.492,0.002,5.239c0,0.099-0.021,0.13-0.128,0.13
			c-2.229-0.003-4.466-0.002-6.7-0.002c-0.438,0-0.771-0.335-0.771-0.781c0-4.233,0-8.467,0-12.701c0-0.445,0.334-0.78,0.773-0.78
			C10.168,24.261,12.287,24.262,14.405,24.262z"/>
	</g>
</g>
<path fill="#A0ADBD" d="M42.029,27.182c0.561-0.025,1.084-0.207,1.604-0.391c0.08-0.029,0.161-0.053,0.241-0.08l-0.001-0.002
	c-0.074,0.266-0.277,0.44-0.442,0.64c-0.341,0.41-0.729,0.769-1.153,1.085c-0.092,0.067-0.122,0.139-0.12,0.251
	c0.041,2.674-0.818,5.036-2.547,7.061c-1.521,1.777-3.454,2.855-5.762,3.257c-1.563,0.272-3.104,0.224-4.638-0.183
	c-0.948-0.254-1.85-0.641-2.688-1.16c-0.023-0.014-0.041-0.034-0.109-0.092c1.951,0.166,3.675-0.297,5.247-1.461
	c-0.261-0.043-0.478-0.065-0.688-0.116c-1.229-0.299-2.078-1.036-2.566-2.199c-0.056-0.136-0.075-0.2,0.127-0.177
	c0.424,0.048,0.854,0.067,1.313-0.08c-1.745-0.563-2.679-1.718-2.794-3.562c0.409,0.185,0.786,0.334,1.188,0.404
	c0.094,0.017,0.194,0.033,0.229-0.035c0.034-0.071-0.063-0.131-0.121-0.18c-0.684-0.584-1.083-1.325-1.213-2.207
	c-0.111-0.755,0.017-1.479,0.363-2.163c0.073-0.145,0.121-0.119,0.207-0.019c0.563,0.656,1.189,1.236,1.896,1.732
	c1.361,0.959,2.867,1.563,4.521,1.786c0.214,0.029,0.431,0.043,0.642,0.079c0.219,0.037,0.231-0.055,0.206-0.241
	c-0.111-0.724-0.022-1.422,0.294-2.091c1.045-2.213,4.017-2.753,5.771-1.044c0.092,0.09,0.171,0.115,0.302,0.085
	c0.73-0.166,1.421-0.436,2.104-0.825c-0.104,0.411-0.297,0.736-0.523,1.046c-0.203,0.279-0.444,0.518-0.728,0.722
	c-0.063,0.045-0.138,0.079-0.163,0.162c-0.006,0-0.013,0-0.02,0.002c-0.005,0.001-0.005,0.008-0.006,0.012
	C42.015,27.194,42.023,27.188,42.029,27.182z"/>
<g>
	<path fill="#5F809A" d="M170.311,3.85c-11.273,0-20.412,9.138-20.412,20.411c0,11.272,9.139,20.411,20.412,20.411
		c11.271,0,20.41-9.139,20.41-20.411C190.721,12.988,181.583,3.85,170.311,3.85z M170.311,40.877
		c-9.181,0-16.617-7.439-16.617-16.616c0-9.177,7.438-16.616,16.617-16.616c9.176,0,16.612,7.439,16.612,16.616
		C186.928,33.438,179.486,40.877,170.311,40.877z"/>
	<g>
		<g>
			<g>
				<path fill="#4C9944" d="M169.463,30.341c-0.389,0.389-1.022,0.389-1.414,0l-4.876-4.876c-0.389-0.389-0.389-1.025,0-1.414
					l1.024-1.025c0.39-0.389,1.025-0.389,1.414,0l4.877,4.876c0.389,0.389,0.389,1.025,0,1.414L169.463,30.341z"/>
			</g>
			<g>
				<path fill="#4C9944" d="M178.152,20.22c0.389,0.389,0.389,1.025,0,1.414l-8.707,8.707c-0.389,0.389-1.025,0.389-1.414,0
					l-1.025-1.025c-0.389-0.389-0.389-1.026,0-1.415l8.707-8.707c0.392-0.389,1.025-0.389,1.414,0L178.152,20.22z"/>
			</g>
		</g>
	</g>
</g>
<g>
	<g>
		<path fill="#5F809A" d="M127.873,3.85c-11.271,0-20.411,9.138-20.411,20.411c0,11.272,9.141,20.411,20.411,20.411
			c11.271,0,20.411-9.139,20.411-20.411C148.284,12.988,139.145,3.85,127.873,3.85z M127.873,40.877
			c-9.178,0-16.616-7.439-16.616-16.616c0-9.177,7.438-16.616,16.616-16.616c9.177,0,16.615,7.439,16.615,16.616
			C144.488,33.438,137.05,40.877,127.873,40.877z"/>
	</g>
	<g>
		<g>
			<g>
				<path fill="#A92B34" d="M133.658,31.07c-0.389,0.389-1.025,0.389-1.414,0l-11.299-11.298c-0.389-0.389-0.389-1.025,0-1.414
					l1.025-1.025c0.389-0.389,1.021-0.389,1.41,0l11.301,11.298c0.389,0.389,0.389,1.025,0,1.414L133.658,31.07z"/>
			</g>
			<g>
				<path fill="#A92B34" d="M134.801,18.357c0.392,0.389,0.392,1.025,0,1.414l-11.417,11.417c-0.389,0.389-1.021,0.389-1.41,0
					l-1.025-1.025c-0.389-0.389-0.389-1.026,0-1.415l11.416-11.416c0.39-0.389,1.025-0.389,1.414,0L134.801,18.357z"/>
			</g>
		</g>
	</g>
</g>
<g>
	<path fill="#123555" d="M229.552,20.734c-0.051,3.251-1.105,6.273-3.234,8.911c-0.089,0.113-0.113,0.172,0.008,0.288
		c0.329,0.306,0.637,0.632,0.958,0.947c0.072,0.069,0.099,0.129,0.066,0.237c-0.12,0.397-0.229,0.802-0.335,1.205
		c-0.021,0.08-0.051,0.126-0.137,0.146c-0.434,0.108-0.866,0.219-1.3,0.339c-0.093,0.027-0.144,0.004-0.204-0.057
		c-0.319-0.332-0.647-0.654-0.971-0.987c-0.075-0.076-0.118-0.082-0.204-0.009c-1.785,1.434-3.792,2.439-6.041,2.876
		c-4.828,0.94-9.117-0.207-12.755-3.542c-2.336-2.14-3.767-4.824-4.27-7.953c-0.687-4.277,0.354-8.135,3.102-11.49
		c2.104-2.574,4.819-4.24,8.076-4.894c4.854-0.971,9.163,0.21,12.808,3.582c2.277,2.106,3.646,4.744,4.206,7.794
		C229.48,18.943,229.539,19.771,229.552,20.734z M226.892,20.61c-0.035-6.321-5.02-11.372-11.313-11.522
		c-6.308-0.152-11.804,4.809-11.979,11.389c-0.176,6.372,4.883,11.753,11.478,11.813C221.349,32.349,226.824,27.35,226.892,20.61z"
		/>
	<path fill="#FF421D" d="M222.949,36.26c0.634-0.168,1.23-0.324,1.828-0.478c1.409-0.37,2.821-0.739,4.233-1.101
		c0.126-0.036,0.173-0.1,0.201-0.216c0.525-1.909,1.057-3.815,1.583-5.722c0.061-0.211,0.061-0.214,0.217-0.058
		c1.713,1.72,3.426,3.438,5.139,5.156c0.036,0.039,0.088,0.066,0.104,0.142c-0.422,0.124-0.839,0.251-1.261,0.373
		c-1.534,0.448-3.063,0.898-4.603,1.34c-0.129,0.037-0.186,0.1-0.226,0.22c-0.576,1.882-1.158,3.761-1.736,5.637
		c-0.016,0.041-0.028,0.079-0.035,0.104C226.59,39.867,224.782,38.076,222.949,36.26z"/>
	<path fill="#123555" d="M234.987,41.687c-0.521,0.004-0.842-0.136-1.106-0.397c-0.615-0.618-1.229-1.238-1.851-1.856
		c-0.061-0.06-0.071-0.108-0.044-0.189c0.134-0.416,0.258-0.833,0.384-1.248c0.023-0.077,0.061-0.119,0.146-0.144
		c0.399-0.108,0.803-0.227,1.2-0.347c0.096-0.03,0.154-0.008,0.226,0.06c0.619,0.628,1.248,1.242,1.855,1.876
		c0.397,0.413,0.487,0.917,0.266,1.447C235.838,41.409,235.41,41.663,234.987,41.687z"/>
	<path fill="#123555" d="M221.942,20.831c-0.02-0.697-0.165-1.343-0.324-1.994c-0.214-0.878,0.524-1.575,1.205-1.596
		c0.655-0.021,1.239,0.341,1.446,1.205c0.153,0.655,0.268,1.313,0.306,1.991c0.075,1.332-0.149,2.61-0.635,3.843
		c-0.342,0.874-0.82,1.669-1.421,2.396c-1.31,1.582-2.963,2.599-4.939,3.109c-0.521,0.133-1.056,0.205-1.595,0.253
		c-0.536,0.045-1.075,0.045-1.606-0.018c-1.938-0.237-3.664-0.968-5.148-2.259c-0.549-0.476-0.572-1.285-0.239-1.764
		c0.464-0.671,1.38-0.786,2.003-0.234c0.953,0.841,2.064,1.359,3.307,1.559c1.289,0.207,2.556,0.048,3.746-0.502
		c1.909-0.875,3.157-2.324,3.695-4.364C221.883,21.919,221.942,21.364,221.942,20.831z"/>
	<path fill="#123555" d="M217.11,20.677c0.005,1.051-0.828,1.896-1.869,1.896c-1.03-0.002-1.854-0.828-1.857-1.863
		c-0.003-1.048,0.817-1.89,1.849-1.895C216.273,18.812,217.105,19.635,217.11,20.677z"/>
</g>
<g>
	<path fill="#FFFFFF" d="M270.935,19.415c-0.048,3.25-1.105,6.273-3.234,8.91c-0.089,0.113-0.113,0.172,0.008,0.287
		c0.329,0.307,0.64,0.633,0.958,0.947c0.072,0.068,0.102,0.129,0.066,0.238c-0.12,0.396-0.229,0.801-0.335,1.203
		c-0.021,0.08-0.048,0.127-0.134,0.146c-0.437,0.109-0.869,0.221-1.303,0.34c-0.093,0.027-0.144,0.004-0.201-0.057
		c-0.322-0.332-0.65-0.654-0.974-0.988c-0.075-0.074-0.118-0.08-0.204-0.008c-1.785,1.434-3.792,2.439-6.041,2.875
		c-4.828,0.941-9.114-0.205-12.755-3.541c-2.336-2.141-3.767-4.824-4.269-7.953c-0.688-4.277,0.354-8.135,3.101-11.49
		c2.104-2.574,4.819-4.24,8.076-4.895c4.854-0.971,9.163,0.211,12.808,3.582c2.277,2.107,3.646,4.744,4.206,7.795
		C270.863,17.624,270.922,18.45,270.935,19.415z M268.274,19.29c-0.035-6.32-5.02-11.371-11.313-11.521
		c-6.308-0.152-11.804,4.809-11.979,11.389c-0.173,6.371,4.883,11.752,11.478,11.813C262.731,31.028,268.207,26.03,268.274,19.29z"
		/>
	<path fill="#FF421D" d="M264.332,34.94c0.634-0.168,1.23-0.324,1.828-0.479c1.409-0.369,2.821-0.738,4.233-1.1
		c0.126-0.037,0.173-0.1,0.204-0.217c0.522-1.908,1.054-3.814,1.583-5.723c0.058-0.211,0.058-0.213,0.214-0.057
		c1.713,1.721,3.426,3.438,5.139,5.156c0.036,0.039,0.088,0.066,0.104,0.143c-0.425,0.123-0.842,0.25-1.264,0.373
		c-1.532,0.447-3.063,0.898-4.603,1.34c-0.129,0.037-0.186,0.1-0.225,0.219c-0.574,1.883-1.156,3.762-1.737,5.638
		c-0.016,0.041-0.028,0.08-0.035,0.102C267.973,38.546,266.165,36.755,264.332,34.94z"/>
	<path fill="#FFFFFF" d="M276.37,40.365c-0.521,0.004-0.842-0.136-1.104-0.398c-0.618-0.619-1.232-1.239-1.854-1.856
		c-0.061-0.061-0.071-0.109-0.044-0.189c0.134-0.416,0.258-0.832,0.384-1.248c0.023-0.076,0.061-0.119,0.146-0.145
		c0.399-0.107,0.803-0.227,1.203-0.346c0.093-0.031,0.151-0.008,0.223,0.059c0.619,0.629,1.248,1.242,1.858,1.877
		c0.396,0.414,0.484,0.918,0.263,1.446C277.221,40.09,276.793,40.344,276.37,40.365z"/>
	<path fill="#FFFFFF" d="M263.325,19.511c-0.017-0.697-0.165-1.342-0.324-1.994c-0.214-0.877,0.524-1.574,1.205-1.596
		c0.655-0.02,1.239,0.342,1.446,1.205c0.156,0.656,0.268,1.313,0.306,1.992c0.075,1.33-0.146,2.609-0.635,3.842
		c-0.342,0.873-0.82,1.67-1.421,2.396c-1.307,1.582-2.963,2.598-4.939,3.109c-0.521,0.133-1.056,0.205-1.595,0.252
		c-0.536,0.047-1.075,0.047-1.604-0.018c-1.938-0.236-3.664-0.969-5.151-2.258c-0.549-0.477-0.572-1.285-0.239-1.764
		c0.464-0.672,1.38-0.787,2.003-0.234c0.953,0.84,2.064,1.357,3.31,1.559c1.289,0.207,2.553,0.049,3.746-0.502
		c1.906-0.875,3.154-2.324,3.692-4.365C263.266,20.599,263.325,20.044,263.325,19.511z"/>
	<path fill="#FFFFFF" d="M258.493,19.356c0.005,1.051-0.828,1.895-1.869,1.895c-1.027-0.002-1.854-0.826-1.854-1.861
		c-0.003-1.049,0.814-1.891,1.846-1.895C257.656,17.491,258.488,18.315,258.493,19.356z"/>
</g>
<g id="_x31_280_x5F_00A_x5F_logo_x5F_V3" transform="translate(-220.000000, -323.000000)">
	<g id="Logo-big" transform="translate(208.000000, 300.000000)">
		<text transform="matrix(1 0 0 1 111.8635 319)" fill="#123555" font-family="'Reader-Medium'" font-size="114">Mister Isidor</text>
		<g id="Logo_V3" transform="translate(0.000000, 11.000000)">
			<circle id="Oval" fill="#123555" cx="8.689" cy="272.717" r="6.3"/>
			<path id="Shape" fill="none" stroke="#123555" stroke-width="9" stroke-linecap="round" stroke-linejoin="round" d="
				M-8.637,293.2c8.601,7.699,21.601,9.1,31.9,2.6c10.397-6.5,14.698-19.1,11.198-30.3"/>
			<path id="Shape_1_" fill="none" stroke="#123555" stroke-width="9" stroke-linecap="round" stroke-linejoin="round" d="
				M39.464,303.8l35.102,35.5"/>
			
				<circle id="Oval_1_" fill="none" stroke="#123555" stroke-width="9" stroke-linecap="round" stroke-linejoin="round" cx="8.671" cy="272.707" r="43.7"/>
			<g id="Group" transform="translate(77.000000, 78.000000)">
				<path id="Shape_2_" fill="#FF421D" d="M-24.137,270.399c-1.2,0-2.3-0.5-3.2-1.301l-18.3-18.5c-1.1-1.101-1.6-2.801-1.1-4.398
					c0.397-1.602,1.6-2.801,3.198-3.2l18.399-4.8l5-18.2c0.4-1.601,1.601-2.8,3.2-3.2c0.398-0.1,0.8-0.1,1.1-0.1
					c1.2,0,2.301,0.5,3.2,1.3l18.3,18.5c1.103,1.101,1.603,2.8,1.2,4.3c-0.399,1.5-1.6,2.7-3.1,3.2l-18.103,5.3l-5.5,17.9
					c-0.5,1.5-1.699,2.699-3.199,3.1C-23.437,270.399-23.837,270.399-24.137,270.399z"/>
				<path id="Shape_3_" fill="#FFFFFF" d="M-15.837,221.2l18.301,18.5l-20.398,6l-6.2,20.199l-18.3-18.5l20.898-5.5L-15.837,221.2z
					 M-15.837,212.2c-0.8,0-1.5,0.1-2.3,0.3c-3.1,0.8-5.6,3.2-6.399,6.3l-4.301,15.7l-15.897,4.2c-3.103,0.8-5.5,3.199-6.4,6.3
					c-0.8,3.101,0,6.399,2.3,8.7l18.301,18.5c1.699,1.699,4,2.699,6.399,2.699c0.7,0,1.4-0.102,2.2-0.301
					c3.1-0.801,5.5-3.101,6.5-6.101l4.8-15.601l15.8-4.602c3-0.898,5.4-3.3,6.2-6.398c0.8-3.102-0.1-6.301-2.3-8.602l-18.3-18.5
					C-11.137,213.101-13.437,212.2-15.837,212.2z"/>
			</g>
		</g>
	</g>
</g>
<g id="Components_x2F_Header---Solid" transform="translate(-539.000000, -21.000000)">
	<g id="Logo_small">
		<g transform="translate(536.000000, 15.000000)">
			<text transform="matrix(1 0 0 1 209.5779 -181)" fill="#123555" font-family="'Reader-Medium'" font-size="28">Mister Isidor</text>
			<g id="Logo_V3_1_" transform="translate(0.000000, 3.000000)">
				
					<ellipse id="Oval_3_" transform="matrix(0.9944 0.1055 -0.1055 0.9944 -19.1877 -20.3783)" fill="#123555" cx="183.092" cy="-191.617" rx="1.597" ry="1.608"/>
				<path id="Shape_7_" fill="none" stroke="#123555" stroke-width="2.2817" stroke-linecap="round" stroke-linejoin="round" d="
					M178.684-186.414c2.194,1.952,5.515,2.307,8.145,0.659c2.655-1.648,3.753-4.842,2.86-7.682"/>
				<path id="Shape_6_" fill="none" stroke="#123555" stroke-width="2.2817" stroke-linecap="round" stroke-linejoin="round" d="
					M190.965-183.727l8.965,9"/>
				
					<ellipse id="Oval_2_" transform="matrix(0.5335 0.8458 -0.8458 0.5335 -76.6401 -244.2563)" fill="none" stroke="#123555" stroke-width="2.2817" stroke-linecap="round" stroke-linejoin="round" cx="183.107" cy="-191.605" rx="11.078" ry="11.158"/>
				<g id="Group_1_" transform="translate(19.659574, 19.774648)">
					<path id="Shape_5_" fill="#FF421D" d="M174.727-192.195c-0.307,0-0.588-0.127-0.814-0.329l-4.675-4.69
						c-0.279-0.279-0.407-0.71-0.279-1.115c0.103-0.406,0.407-0.71,0.815-0.812l4.697-1.217l1.277-4.614
						c0.102-0.405,0.406-0.71,0.814-0.811c0.104-0.025,0.205-0.025,0.281-0.025c0.307,0,0.588,0.126,0.816,0.329l4.673,4.688
						c0.278,0.278,0.407,0.709,0.307,1.09c-0.101,0.381-0.409,0.685-0.792,0.811l-4.621,1.344l-1.404,4.539
						c-0.127,0.38-0.434,0.684-0.814,0.785C174.906-192.195,174.803-192.195,174.727-192.195z"/>
					<path id="Shape_4_" fill="#FFFFFF" d="M176.846-204.667l4.672,4.689l-5.208,1.521l-1.583,5.121l-4.672-4.689l5.336-1.395
						L176.846-204.667z M176.846-206.949c-0.204,0-0.383,0.025-0.588,0.076c-0.791,0.203-1.43,0.813-1.633,1.597l-1.101,3.98
						l-4.06,1.065c-0.791,0.202-1.404,0.812-1.634,1.597c-0.204,0.786,0,1.623,0.587,2.206l4.672,4.69
						c0.435,0.431,1.021,0.684,1.635,0.684c0.179,0,0.357-0.025,0.563-0.076c0.792-0.202,1.402-0.785,1.657-1.546l1.229-3.955
						l4.033-1.166c0.766-0.228,1.379-0.837,1.584-1.622c0.203-0.787-0.026-1.598-0.588-2.181l-4.674-4.69
						C178.045-206.721,177.459-206.949,176.846-206.949z"/>
				</g>
			</g>
		</g>
	</g>
</g>
<g>
	<path fill="#123555" d="M1482.812,1379.999c-7.87,0-14.25,6.38-14.25,14.25s6.38,14.25,14.25,14.25s14.25-6.38,14.25-14.25
		S1490.682,1379.999,1482.812,1379.999z M1482.812,1405.874c-6.42,0-11.625-5.205-11.625-11.625s5.205-11.625,11.625-11.625
		s11.625,5.205,11.625,11.625S1489.232,1405.874,1482.812,1405.874z"/>
	<rect x="1481.437" y="1386.999" fill="#123555" width="1.875" height="7.875"/>
	
		<rect x="1484.531" y="1392.067" transform="matrix(-0.4973 0.8676 -0.8676 -0.4973 3435.3474 801.5145)" fill="#123555" width="1.875" height="7.876"/>
</g>
<g>
	<path fill="#FFFFFF" d="M61.642,54.587c-4.326,0-7.833,3.508-7.833,7.834s3.507,7.834,7.833,7.834c4.324,0,7.833-3.508,7.833-7.834
		S65.969,54.587,61.642,54.587z M61.642,68.812c-3.529,0-6.393-2.859-6.393-6.391c0-3.529,2.861-6.391,6.393-6.391
		c3.528,0,6.391,2.861,6.391,6.391C68.033,65.951,65.172,68.812,61.642,68.812z"/>
	<rect x="60.979" y="57.937" fill="#FFFFFF" width="1.327" height="4.806"/>
	
		<rect x="62.916" y="60.958" transform="matrix(-0.4975 0.8674 -0.8674 -0.4975 150.162 39.9424)" fill="#FFFFFF" width="1.193" height="5.006"/>
</g>
<g>
	<path fill="#FFFFFF" d="M139.966,69.304h10.65v3.12h-14.1v-21.3h3.449V69.304L139.966,69.304z"/>
	<path fill="#FFFFFF" d="M152.627,51.124v3.061c0,0.779-0.016,1.346-0.045,1.694c-0.029,0.351-0.115,0.735-0.256,1.155
		c-0.14,0.42-0.364,0.775-0.674,1.064c-0.312,0.291-0.756,0.614-1.336,0.975l-0.93-1.409c0.618-0.3,1.02-0.61,1.199-0.931
		c0.182-0.319,0.271-0.721,0.271-1.199v-0.66h-1.86v-3.75H152.627z"/>
	<path fill="#FFFFFF" d="M168.616,71.884v0.54h-2.399c-0.721,0-1.079-0.499-1.079-1.5c-0.602,0.601-1.205,1.046-1.815,1.335
		s-1.455,0.436-2.535,0.436c-1.681,0-3.075-0.404-4.185-1.215c-1.11-0.811-1.666-2.035-1.666-3.676c0-0.88,0.149-1.64,0.451-2.279
		c0.299-0.641,0.67-1.135,1.108-1.484c0.439-0.35,1.029-0.63,1.771-0.841c0.739-0.209,1.426-0.351,2.056-0.421
		c0.63-0.068,1.415-0.123,2.354-0.163c1.58-0.062,2.371-0.57,2.371-1.53c0-0.54-0.284-1.021-0.854-1.439
		c-0.57-0.42-1.305-0.631-2.205-0.631c-1.74,0-3.062,0.631-3.96,1.891l-2.13-1.859c0.68-0.9,1.555-1.585,2.625-2.055
		c1.068-0.471,2.225-0.705,3.465-0.705c1.879,0,3.369,0.505,4.47,1.515c1.101,1.011,1.649,2.466,1.649,4.365v9.09
		C168.105,71.674,168.275,71.884,168.616,71.884z M160.786,70.084c1.76,0,2.93-0.409,3.511-1.229c0.579-0.819,0.869-2,0.869-3.541
		v-0.898c-0.16,0.22-0.42,0.391-0.778,0.51c-0.36,0.12-0.666,0.194-0.916,0.227c-0.25,0.029-0.641,0.055-1.171,0.074
		c-0.528,0.021-0.813,0.029-0.854,0.029c-2.16,0.102-3.24,0.95-3.24,2.551c0,0.521,0.2,1.029,0.602,1.529
		C159.206,69.834,159.866,70.084,160.786,70.084z"/>
	<path fill="#FFFFFF" d="M178.726,54.004c-0.605-0.12-1.12-0.181-1.544-0.181c-0.666,0-1.141,0.205-1.424,0.615
		c-0.281,0.41-0.424,1.114-0.424,2.114h3v2.82h-3v13.05h-3.209v-13.05h-2.729v-2.82h2.729c0-2.079,0.34-3.55,1.021-4.409
		c0.68-0.859,1.77-1.289,3.27-1.289c0.521,0,1.291,0.069,2.312,0.209L178.726,54.004L178.726,54.004z"/>
	<path fill="#FFFFFF" d="M188.296,54.004c-0.605-0.12-1.12-0.181-1.544-0.181c-0.666,0-1.141,0.205-1.422,0.615
		c-0.283,0.41-0.424,1.114-0.424,2.114h3v2.91h-3v12.96h-3.211v-12.96h-2.729v-2.91h2.729c0-2.079,0.34-3.55,1.021-4.409
		s1.771-1.289,3.271-1.289c0.52,0,1.289,0.069,2.31,0.209L188.296,54.004L188.296,54.004z M193.035,51.124v3.54h-3.51v-3.54H193.035
		z M189.645,72.424v-15.87h3.271v15.87H189.645z"/>
	<path fill="#FFFFFF" d="M207.735,67.294l2.91,1.5c-1.421,2.6-3.57,3.9-6.45,3.9c-2.26,0-4.18-0.801-5.76-2.4s-2.37-3.529-2.37-5.79
		c0-2.38,0.739-4.345,2.22-5.896c1.48-1.549,3.45-2.324,5.91-2.324c2.779,0,4.93,1.26,6.45,3.779l-2.91,1.649
		c-0.28-0.66-0.73-1.239-1.352-1.739c-0.618-0.5-1.35-0.75-2.188-0.75c-1.62,0-2.801,0.5-3.54,1.5c-0.74,1-1.11,2.26-1.11,3.779
		c0,1.521,0.37,2.773,1.11,3.766c0.739,0.989,1.92,1.484,3.54,1.484c0.88,0,1.615-0.255,2.205-0.766
		C206.99,68.478,207.435,67.914,207.735,67.294z"/>
	<path fill="#FFFFFF" d="M227.865,62.284v10.14h-3.27v-9.659c0-1.34-0.246-2.271-0.735-2.791c-0.49-0.52-1.165-0.779-2.024-0.779
		c-3.28,0-4.92,2.23-4.92,6.689v6.54h-3.271v-21.3h3.271v7.77c1.398-1.74,3.109-2.608,5.129-2.608
		C225.926,56.284,227.865,58.284,227.865,62.284z"/>
	<path fill="#FFFFFF" d="M246.195,64.204v1.5h-12.24c0.16,1.38,0.62,2.404,1.381,3.074c0.761,0.671,1.859,1.006,3.299,1.006
		c2.102,0,3.58-0.74,4.44-2.221l2.431,1.439c-0.641,1.102-1.569,1.99-2.791,2.67c-1.22,0.682-2.58,1.021-4.08,1.021
		c-2.42,0-4.334-0.735-5.743-2.205c-1.41-1.471-2.115-3.465-2.115-5.985c0-2.399,0.715-4.37,2.145-5.91
		c1.431-1.54,3.335-2.31,5.716-2.31c2.26,0,4.061,0.725,5.399,2.175S246.095,61.824,246.195,64.204z M234.045,62.794h9.181
		c-0.199-1.141-0.715-2.04-1.545-2.7c-0.83-0.659-1.845-0.989-3.045-0.989c-1.16,0-2.149,0.319-2.97,0.959
		C234.845,60.704,234.304,61.614,234.045,62.794z"/>
</g>
<rect x="270.984" y="-142.876" fill="none" width="177.5" height="59.5"/>
<text transform="matrix(1 0 0 1 270.9841 -135.1953)" font-family="'RageItalic'" font-size="12">L’affiche</text>
<path fill="none" stroke="#FFFFFF" stroke-width="1.5" stroke-miterlimit="10" d="M46.456,61.128l-2.534,2.067
	c-0.147,0.12-0.214,0.319-0.173,0.521l0.76,3.121c0.107,0.507-0.267,0.92-0.707,0.92c-0.133,0-0.267-0.039-0.387-0.12l-2.761-1.693
	c-0.161-0.107-0.374-0.107-0.534,0l-2.734,1.693c-0.12,0.081-0.267,0.12-0.4,0.12c-0.44,0-0.84-0.413-0.707-0.92l0.761-3.121
	c0.04-0.188-0.014-0.388-0.174-0.508l-2.467-2.08c-0.507-0.441-0.214-1.281,0.44-1.321l3.228-0.227
	c0.187-0.014,0.36-0.134,0.44-0.32l1.228-3.001c0.133-0.308,0.413-0.467,0.693-0.467c0.28,0,0.56,0.159,0.694,0.467l1.227,3.001
	c0.067,0.174,0.241,0.294,0.441,0.32l3.228,0.227C46.682,59.847,46.976,60.687,46.456,61.128z"/>
</svg>
