<?xml version="1.0" encoding="utf-8"?>
<!-- Generator: Adobe Illustrator 16.0.0, SVG Export Plug-In . SVG Version: 6.00 Build 0)  -->
<!DOCTYPE svg PUBLIC "-//W3C//DTD SVG 1.1//EN" "http://www.w3.org/Graphics/SVG/1.1/DTD/svg11.dtd">
<svg version="1.1" id="Calque_1" xmlns="http://www.w3.org/2000/svg" xmlns:xlink="http://www.w3.org/1999/xlink" x="0px" y="0px"
	 width="489.375px" height="110.918px" viewBox="0 0 489.375 110.918" enable-background="new 0 0 489.375 110.918"
	 xml:space="preserve">
<linearGradient id="SVGID_1_" gradientUnits="userSpaceOnUse" x1="253.1248" y1="93.2939" x2="317.1519" y2="29.2668">
	<stop  offset="0" style="stop-color:#AA5D99"/>
	<stop  offset="0.1382" style="stop-color:#9469A3"/>
	<stop  offset="0.3679" style="stop-color:#757AB1"/>
	<stop  offset="0.5921" style="stop-color:#5F86BB"/>
	<stop  offset="0.8064" style="stop-color:#528EC1"/>
	<stop  offset="1" style="stop-color:#4D90C3"/>
</linearGradient>
<path fill="url(#SVGID_1_)" d="M330.412,61.282c0,25.002-20.269,45.271-45.273,45.271s-45.273-20.27-45.273-45.271
	c0-25.006,20.269-45.277,45.273-45.277S330.412,36.276,330.412,61.282z"/>
<g id="Vexels">
	<g>
		<path fill="#123555" d="M40.314,11.722c-0.021-0.131-0.074-0.151-0.189-0.151c-2.124,0.003-4.248,0.003-6.372,0
			c-0.122,0-0.166,0.023-0.165,0.158c0.014,0.82,0.014,1.641,0,2.46c-0.001,0.133,0.04,0.159,0.164,0.159
			c1.163-0.004,2.325-0.003,3.487-0.003c0.06,0,0.119,0,0.182,0c-0.013,0.181-0.065,0.338-0.127,0.495
			c-0.247,0.701-0.692,1.239-1.312,1.65c-0.59,0.362-1.235,0.545-1.921,0.604c-1.249,0.109-2.354-0.229-3.297-1.057
			c-0.568-0.498-0.952-1.12-1.208-1.826c-0.143-0.481-0.227-0.97-0.204-1.474c0.013-0.409,0.101-0.804,0.201-1.197
			c-0.011-0.003-0.015-0.006-0.019-0.009c0.008-0.015,0.021-0.029,0.021-0.044c0.98-2.728,4.3-3.68,6.547-1.938
			c0.087,0.067,0.124,0.037,0.184-0.023c0.628-0.631,1.258-1.262,1.896-1.889c0.078-0.077,0.095-0.12-0.001-0.198
			c-1.792-1.462-3.824-1.998-6.101-1.547c-1.604,0.32-2.938,1.133-4.01,2.38c-0.382,0.447-0.713,0.929-0.951,1.471
			c0.003,0.002,0.006,0.005,0.017,0.007c-0.022,0.038-0.051,0.075-0.063,0.115c-0.646,1.423-0.813,2.904-0.517,4.436
			c0.111,0.608,0.304,1.196,0.601,1.745c0.019,0.044,0.035,0.091,0.058,0.134c1.604,3.163,5.439,4.673,8.781,3.457
			c0.846-0.308,1.609-0.75,2.261-1.376c0.204-0.155,0.377-0.345,0.536-0.543C40.212,15.951,40.675,13.941,40.314,11.722z"/>
		<path fill="#123555" d="M14.405,5.762c2.101,0,4.202,0,6.304,0c0.508,0,0.824,0.318,0.824,0.829c0,4.203-0.003,8.405,0.004,12.607
			c0,0.468-0.362,0.837-0.831,0.831c-1.145-0.014-2.289-0.004-3.434-0.004c-0.146,0-0.146,0-0.146-0.135c0-1.743,0-3.486,0-5.229
			c0-0.137,0-0.137,0.146-0.137c0.532,0,1.063-0.002,1.597,0.001c0.09,0,0.124-0.025,0.136-0.121
			c0.079-0.652,0.165-1.304,0.253-1.954c0.02-0.096-0.013-0.122-0.104-0.122c-0.629,0.003-1.259,0-1.889,0.004
			c-0.104,0-0.14-0.025-0.138-0.128c0.014-0.48,0.001-0.96,0.021-1.44c0.003-0.128,0.038-0.263,0.088-0.382
			c0.136-0.317,0.42-0.414,0.729-0.428c0.409-0.019,0.82-0.014,1.23-0.018c0.146-0.001,0.15,0,0.15-0.149c0-0.553,0-1.106,0-1.66
			c0-0.151,0-0.158-0.155-0.165c-0.573-0.024-1.146-0.069-1.719-0.06c-0.723,0.012-1.359,0.245-1.868,0.774
			c-0.396,0.405-0.607,0.899-0.684,1.449c-0.045,0.354-0.042,0.714-0.051,1.071c-0.007,0.337-0.005,0.675,0.001,1.012
			c0.002,0.099-0.029,0.122-0.125,0.121c-0.536-0.003-1.064,0-1.604-0.004c-0.104-0.001-0.145,0.029-0.144,0.135
			c0.007,0.644,0.007,1.287,0,1.931c0,0.099,0.029,0.133,0.136,0.132c0.527-0.004,1.063-0.002,1.599-0.001
			c0.139,0,0.139,0,0.139,0.134c0,1.746,0,3.492,0.002,5.239c0,0.099-0.021,0.13-0.128,0.13c-2.229-0.003-4.466-0.002-6.7-0.002
			c-0.438,0-0.771-0.335-0.771-0.781c0-4.233,0-8.467,0-12.701c0-0.445,0.334-0.78,0.772-0.78
			C10.168,5.761,12.287,5.762,14.405,5.762z"/>
	</g>
	<g>
		<circle fill="#E6EBF1" cx="58.576" cy="18.121" r="12.623"/>
		<circle fill="#657E93" cx="53.816" cy="14.529" r="1.637"/>
		<circle fill="#657E93" cx="63.337" cy="14.529" r="1.637"/>
		<path fill="#657E93" d="M58.576,25.961c3.572,0,6.468-2.894,6.468-6.466H52.109C52.109,23.067,55.005,25.961,58.576,25.961z"/>
	</g>
	<g>
		<circle fill="#E6EBF1" cx="89.336" cy="18.121" r="12.622"/>
		<circle fill="#657E93" cx="84.576" cy="14.53" r="1.636"/>
		<circle fill="#657E93" cx="94.095" cy="14.53" r="1.636"/>
		<path fill="#657E93" d="M89.335,19.497c-3.565,0-6.467,2.893-6.467,6.466h12.934C95.802,22.39,92.908,19.497,89.335,19.497z"/>
	</g>
	<g>
		<path fill="#A0ADBD" d="M14.405,24.262c2.101,0,4.202,0,6.304,0c0.508,0,0.824,0.318,0.824,0.829
			c0,4.203-0.003,8.405,0.004,12.607c0,0.468-0.362,0.837-0.831,0.831c-1.145-0.014-2.289-0.004-3.434-0.004
			c-0.146,0-0.146,0-0.146-0.135c0-1.743,0-3.486,0-5.229c0-0.137,0-0.137,0.146-0.137c0.532,0,1.063-0.002,1.597,0.001
			c0.09,0,0.124-0.025,0.136-0.121c0.079-0.652,0.165-1.304,0.253-1.954c0.02-0.096-0.013-0.122-0.104-0.122
			c-0.629,0.003-1.259,0-1.889,0.004c-0.104,0-0.14-0.025-0.138-0.128c0.014-0.48,0.001-0.96,0.021-1.44
			c0.003-0.128,0.038-0.263,0.088-0.382c0.136-0.317,0.42-0.414,0.729-0.428c0.409-0.019,0.82-0.014,1.23-0.018
			c0.146-0.001,0.15,0,0.15-0.149c0-0.553,0-1.106,0-1.66c0-0.151,0-0.158-0.155-0.165c-0.573-0.024-1.146-0.069-1.719-0.06
			c-0.723,0.012-1.359,0.245-1.868,0.774c-0.396,0.405-0.607,0.899-0.684,1.449c-0.045,0.354-0.042,0.714-0.051,1.071
			c-0.007,0.337-0.005,0.675,0.001,1.012c0.002,0.099-0.029,0.122-0.125,0.121c-0.536-0.003-1.064,0-1.604-0.004
			c-0.104-0.001-0.145,0.029-0.144,0.135c0.007,0.644,0.007,1.287,0,1.931c0,0.099,0.029,0.133,0.136,0.132
			c0.527-0.004,1.063-0.002,1.599-0.001c0.139,0,0.139,0,0.139,0.134c0,1.746,0,3.492,0.002,5.239c0,0.099-0.021,0.13-0.128,0.13
			c-2.229-0.003-4.466-0.002-6.7-0.002c-0.438,0-0.771-0.335-0.771-0.781c0-4.233,0-8.467,0-12.701c0-0.445,0.334-0.78,0.772-0.78
			C10.168,24.261,12.287,24.262,14.405,24.262z"/>
	</g>
</g>
<path fill="#A0ADBD" d="M42.029,27.182c0.561-0.025,1.084-0.207,1.604-0.391c0.08-0.029,0.161-0.053,0.241-0.08l-0.001-0.002
	c-0.074,0.266-0.276,0.44-0.441,0.64c-0.342,0.41-0.729,0.769-1.153,1.085c-0.092,0.067-0.122,0.139-0.12,0.251
	c0.041,2.674-0.818,5.036-2.547,7.061c-1.521,1.777-3.454,2.855-5.762,3.257c-1.563,0.272-3.104,0.224-4.639-0.183
	c-0.947-0.254-1.85-0.641-2.688-1.16c-0.023-0.014-0.041-0.034-0.109-0.092c1.951,0.166,3.675-0.297,5.247-1.461
	c-0.261-0.043-0.478-0.065-0.688-0.116c-1.229-0.299-2.078-1.036-2.566-2.199c-0.056-0.136-0.075-0.2,0.127-0.177
	c0.424,0.048,0.854,0.067,1.313-0.08c-1.745-0.563-2.68-1.718-2.794-3.562c0.408,0.185,0.785,0.334,1.188,0.404
	c0.094,0.017,0.194,0.033,0.229-0.035c0.033-0.071-0.063-0.131-0.121-0.18c-0.685-0.584-1.083-1.325-1.213-2.207
	c-0.111-0.755,0.017-1.479,0.362-2.163c0.073-0.145,0.121-0.119,0.207-0.019c0.563,0.656,1.189,1.236,1.896,1.732
	c1.36,0.959,2.867,1.563,4.521,1.786c0.214,0.029,0.432,0.043,0.643,0.079c0.219,0.037,0.23-0.055,0.206-0.241
	c-0.111-0.724-0.022-1.422,0.294-2.091c1.045-2.213,4.017-2.753,5.771-1.044c0.092,0.09,0.171,0.115,0.302,0.085
	c0.73-0.166,1.421-0.436,2.104-0.825c-0.104,0.411-0.297,0.736-0.523,1.046c-0.203,0.279-0.443,0.518-0.728,0.722
	c-0.063,0.045-0.138,0.079-0.163,0.162c-0.006,0-0.013,0-0.021,0.002c-0.005,0.001-0.005,0.008-0.006,0.012
	C42.015,27.194,42.023,27.188,42.029,27.182z"/>
<g>
	<g>
		<path fill="#5F809A" d="M127.873,3.85c-11.271,0-20.411,9.138-20.411,20.411c0,11.272,9.142,20.411,20.411,20.411
			c11.271,0,20.411-9.139,20.411-20.411C148.284,12.988,139.145,3.85,127.873,3.85z M127.873,40.877
			c-9.178,0-16.616-7.439-16.616-16.616c0-9.177,7.438-16.616,16.616-16.616c9.177,0,16.615,7.439,16.615,16.616
			C144.488,33.438,137.05,40.877,127.873,40.877z"/>
	</g>
	<g>
		<g>
			<g>
				<path fill="#A92B34" d="M133.658,31.07c-0.389,0.389-1.025,0.389-1.414,0l-11.299-11.298c-0.389-0.389-0.389-1.025,0-1.414
					l1.025-1.025c0.389-0.389,1.021-0.389,1.409,0l11.302,11.298c0.389,0.389,0.389,1.025,0,1.414L133.658,31.07z"/>
			</g>
			<g>
				<path fill="#A92B34" d="M134.801,18.357c0.393,0.389,0.393,1.025,0,1.414l-11.417,11.417c-0.389,0.389-1.021,0.389-1.409,0
					l-1.025-1.025c-0.389-0.389-0.389-1.026,0-1.415l11.416-11.416c0.39-0.389,1.025-0.389,1.414,0L134.801,18.357z"/>
			</g>
		</g>
	</g>
</g>
<g>
	<path fill="#FFFFFF" d="M61.642,54.587c-4.326,0-7.833,3.508-7.833,7.834s3.507,7.834,7.833,7.834c4.323,0,7.833-3.508,7.833-7.834
		S65.969,54.587,61.642,54.587z M61.642,68.812c-3.529,0-6.394-2.858-6.394-6.391c0-3.529,2.861-6.391,6.394-6.391
		c3.527,0,6.391,2.861,6.391,6.391C68.033,65.951,65.172,68.812,61.642,68.812z"/>
	<rect x="60.979" y="57.937" fill="#FFFFFF" width="1.327" height="4.807"/>
	
		<rect x="62.922" y="60.958" transform="matrix(0.4975 -0.8674 0.8674 0.4975 -23.1334 86.9841)" fill="#FFFFFF" width="1.193" height="5.005"/>
</g>
<path fill="none" stroke="#FFFFFF" stroke-width="1.5" stroke-miterlimit="10" d="M46.456,61.128l-2.534,2.066
	c-0.146,0.121-0.214,0.32-0.173,0.521l0.76,3.121c0.107,0.507-0.267,0.92-0.707,0.92c-0.133,0-0.267-0.039-0.387-0.12l-2.761-1.692
	c-0.161-0.107-0.374-0.107-0.534,0l-2.733,1.692c-0.12,0.081-0.268,0.12-0.4,0.12c-0.44,0-0.84-0.413-0.707-0.92l0.761-3.121
	c0.04-0.188-0.014-0.388-0.174-0.508l-2.467-2.08c-0.507-0.441-0.214-1.281,0.439-1.32l3.229-0.228
	c0.187-0.015,0.359-0.134,0.439-0.32l1.229-3.001c0.133-0.308,0.413-0.467,0.693-0.467c0.279,0,0.56,0.159,0.693,0.467l1.228,3.001
	c0.066,0.175,0.24,0.294,0.44,0.32l3.229,0.228C46.682,59.847,46.976,60.687,46.456,61.128z"/>
<g>
	<path fill="#FFFFFF" d="M174.365,67.104c-0.617,1.09-1.461,1.933-2.531,2.532c-1.072,0.601-2.25,0.9-3.535,0.9
		c-1.303,0-2.485-0.3-3.548-0.9c-1.063-0.6-1.901-1.442-2.518-2.532c-0.618-1.087-0.927-2.317-0.927-3.688s0.309-2.601,0.927-3.688
		c0.616-1.09,1.455-1.938,2.518-2.547c1.063-0.607,2.245-0.913,3.548-0.913c1.285,0,2.463,0.306,3.535,0.913
		c1.07,0.608,1.914,1.457,2.531,2.547c0.618,1.087,0.926,2.316,0.926,3.688S174.983,66.017,174.365,67.104z M171.678,61.166
		c-0.351-0.659-0.822-1.17-1.414-1.529c-0.591-0.36-1.246-0.541-1.966-0.541s-1.375,0.181-1.967,0.541
		c-0.59,0.359-1.062,0.87-1.413,1.529s-0.528,1.41-0.528,2.249c0,0.84,0.177,1.586,0.528,2.236c0.352,0.651,0.823,1.156,1.413,1.517
		c0.592,0.359,1.247,0.538,1.967,0.538s1.375-0.179,1.966-0.538c0.592-0.36,1.063-0.865,1.414-1.517
		c0.351-0.65,0.527-1.396,0.527-2.236C172.206,62.576,172.029,61.825,171.678,61.166z"/>
	<path fill="#FFFFFF" d="M177.67,67.58l4.499-4.885l-3.882-3.574c-0.411-0.359-0.617-0.744-0.617-1.156
		c0-0.325,0.15-0.646,0.449-0.964c0.301-0.316,0.641-0.476,1.016-0.476c0.43,0,0.806,0.164,1.131,0.488l5.502,5.321V46.922
		c0-0.445,0.146-0.818,0.437-1.118c0.292-0.3,0.659-0.45,1.104-0.45c0.446,0,0.815,0.15,1.106,0.45
		c0.292,0.3,0.438,0.673,0.438,1.118V68.71c0,0.446-0.146,0.818-0.438,1.118c-0.291,0.301-0.66,0.451-1.106,0.451
		c-0.445,0-0.813-0.15-1.104-0.451c-0.291-0.3-0.437-0.672-0.437-1.118v-2.698l-1.26-1.157l-4.627,4.883
		c-0.309,0.344-0.686,0.516-1.131,0.516c-0.377,0-0.733-0.146-1.065-0.437c-0.337-0.293-0.503-0.652-0.503-1.081
		C177.181,68.308,177.344,67.921,177.67,67.58z"/>
	<path fill="#FFFFFF" d="M192.437,51.204c-0.239-0.188-0.358-0.523-0.358-1.003v-0.488c0-0.48,0.128-0.814,0.385-1.003
		c0.258-0.188,0.668-0.283,1.234-0.283c0.6,0,1.019,0.096,1.26,0.283c0.238,0.188,0.36,0.522,0.36,1.003v0.488
		c0,0.497-0.126,0.835-0.374,1.015c-0.249,0.18-0.672,0.27-1.272,0.27C193.089,51.485,192.678,51.393,192.437,51.204z
		 M194.802,69.828c-0.291,0.301-0.659,0.451-1.104,0.451s-0.814-0.15-1.105-0.451c-0.292-0.3-0.438-0.672-0.438-1.118V58.094
		c0-0.445,0.146-0.817,0.438-1.118c0.291-0.3,0.66-0.45,1.105-0.45s0.813,0.15,1.104,0.45c0.291,0.301,0.438,0.673,0.438,1.118
		V68.71C195.241,69.156,195.094,69.528,194.802,69.828z"/>
	<path fill="#FFFFFF" d="M209.545,68.735c0,0.429-0.168,0.788-0.503,1.081c-0.334,0.291-0.689,0.437-1.065,0.437
		c-0.446,0-0.823-0.172-1.132-0.516l-4.626-4.883l-1.262,1.157v2.698c0,0.446-0.146,0.818-0.436,1.118
		c-0.291,0.301-0.659,0.451-1.105,0.451c-0.444,0-0.814-0.15-1.104-0.451c-0.292-0.3-0.438-0.672-0.438-1.118V46.922
		c0-0.445,0.146-0.818,0.438-1.118c0.29-0.3,0.66-0.45,1.104-0.45c0.446,0,0.814,0.15,1.105,0.45c0.29,0.3,0.436,0.673,0.436,1.118
		v15.413l5.503-5.321c0.325-0.324,0.701-0.488,1.13-0.488c0.377,0,0.715,0.159,1.016,0.476c0.301,0.318,0.45,0.639,0.45,0.964
		c0,0.412-0.206,0.797-0.617,1.156l-3.881,3.574l4.498,4.885C209.38,67.921,209.545,68.308,209.545,68.735z"/>
	<path fill="#FFFFFF" d="M223.965,67.104c-0.616,1.09-1.462,1.933-2.533,2.532c-1.07,0.601-2.248,0.9-3.533,0.9
		c-1.302,0-2.485-0.3-3.547-0.9c-1.063-0.6-1.903-1.442-2.521-2.532c-0.616-1.087-0.925-2.317-0.925-3.688s0.309-2.601,0.925-3.688
		c0.617-1.09,1.457-1.938,2.521-2.547c1.062-0.607,2.245-0.913,3.547-0.913c1.285,0,2.463,0.306,3.533,0.913
		c1.071,0.608,1.917,1.457,2.533,2.547c0.616,1.087,0.926,2.316,0.926,3.688S224.581,66.017,223.965,67.104z M221.279,61.166
		c-0.352-0.659-0.824-1.17-1.414-1.529c-0.591-0.36-1.247-0.541-1.967-0.541s-1.375,0.181-1.967,0.541
		c-0.591,0.359-1.063,0.87-1.414,1.529c-0.352,0.659-0.526,1.41-0.526,2.249c0,0.84,0.175,1.586,0.526,2.236
		c0.351,0.651,0.823,1.156,1.414,1.517c0.592,0.359,1.247,0.538,1.967,0.538s1.376-0.179,1.967-0.538
		c0.59-0.36,1.063-0.865,1.414-1.517c0.351-0.65,0.525-1.396,0.525-2.236C221.804,62.576,221.63,61.825,221.279,61.166z"/>
	<rect x="187.136" y="64.121" fill="#FFFFFF" width="0.992" height="1.678"/>
	<g>
		<g>
			<path fill="#FFFFFF" d="M214.944,48.686c-6.05,0-11,0.572-11,1.271c0,0.699,4.95,1.271,11,1.271h2.642c6.05,0,11,4.95,11,11
				v2.261c0,6.05-4.95,11-11,11h-49.152c-6.05,0-11-4.95-11-11v-2.261c0-6.05,4.95-11,11-11h3.837c6.05,0,11-0.572,11-1.271
				c0-0.698-4.95-1.271-11-1.271h-6.075c-6.05,0-11,4.95-11,11v7.396c0,6.05,4.95,11,11,11h53.68c6.05,0,11-4.95,11-11v-7.396
				c0-6.05-4.95-11-11-11H214.944z"/>
		</g>
	</g>
	<rect x="170.257" y="48.686" fill="#FFFFFF" width="13.014" height="2.542"/>
	<rect x="203.944" y="48.686" fill="#FFFFFF" width="12.335" height="2.542"/>
</g>
<g>
	<path d="M48.75,103.687c0,1.065-0.9,1.938-2,1.938h-19c-1.1,0-2-0.872-2-1.938s0.9-1.938,2-1.938h19
		C47.85,101.749,48.75,102.621,48.75,103.687z"/>
</g>
<g>
	<path d="M42.75,109.499c0,0.963-0.9,1.75-2,1.75H24.5c-1.1,0-2-0.787-2-1.75s0.9-1.75,2-1.75h16.25
		C41.85,107.749,42.75,108.536,42.75,109.499z"/>
</g>
<g>
	<path d="M94.557,103.274c0.632,0.633,0.513,1.786-0.265,2.563l-0.781,0.781c-0.778,0.777-1.931,0.897-2.563,0.265
		c-0.632-0.632-0.513-1.785,0.265-2.563l0.781-0.781C92.772,102.763,93.926,102.643,94.557,103.274z"/>
</g>
<g>
	<path d="M85.291,99.438c0.894,0,1.625,0.9,1.625,2v1.104c0,1.1-0.731,2-1.625,2s-1.625-0.9-1.625-2v-1.104
		C83.666,100.338,84.398,99.438,85.291,99.438z"/>
</g>
<g>
	<path d="M76.026,103.276c0.632-0.633,1.785-0.513,2.563,0.265l0.781,0.781c0.778,0.777,0.897,1.931,0.265,2.563
		c-0.632,0.632-1.785,0.512-2.563-0.266l-0.781-0.781C75.513,105.062,75.394,103.908,76.026,103.276z"/>
</g>
<g>
	<path d="M72.187,112.543c0-0.894,0.9-1.625,2-1.625h1.104c1.1,0,2,0.731,2,1.625s-0.9,1.625-2,1.625h-1.104
		C73.087,114.168,72.187,113.437,72.187,112.543z"/>
</g>
<g>
	<path d="M93.291,112.543c0-0.894,0.9-1.625,2-1.625h1.104c1.1,0,2,0.731,2,1.625s-0.9,1.625-2,1.625h-1.104
		C94.191,114.168,93.291,113.437,93.291,112.543z"/>
</g>
<g>
	<g>
		<path fill="#E2BA13" d="M25.183,54.751c0.632,0.632,0.513,1.785-0.265,2.563l-0.781,0.781c-0.778,0.777-1.931,0.897-2.563,0.266
			c-0.632-0.633-0.513-1.786,0.265-2.563l0.781-0.781C23.398,54.238,24.551,54.118,25.183,54.751z"/>
	</g>
	<g>
		<path fill="#E2BA13" d="M10.26,69.673c0.632,0.633,0.513,1.786-0.265,2.563l-0.781,0.781c-0.778,0.777-1.931,0.897-2.563,0.265
			c-0.632-0.632-0.513-1.785,0.265-2.563l0.781-0.781C8.475,69.161,9.628,69.041,10.26,69.673z"/>
	</g>
	<g>
		<path fill="#E2BA13" d="M15.917,50.913c0.894,0,1.625,0.9,1.625,2v1.104c0,1.1-0.731,2-1.625,2s-1.625-0.9-1.625-2v-1.104
			C14.292,51.813,15.023,50.913,15.917,50.913z"/>
	</g>
	<g>
		<path fill="#E2BA13" d="M15.917,72.018c0.894,0,1.625,0.9,1.625,2v1.104c0,1.1-0.731,2-1.625,2.001c-0.894,0-1.625-0.9-1.625-2
			v-1.104C14.292,72.918,15.023,72.018,15.917,72.018z"/>
	</g>
	<g>
		<path fill="#E2BA13" d="M6.651,54.751c0.632-0.632,1.785-0.512,2.563,0.266l0.781,0.781c0.778,0.777,0.897,1.931,0.265,2.563
			c-0.632,0.633-1.785,0.513-2.563-0.265l-0.781-0.781C6.138,56.537,6.019,55.384,6.651,54.751z"/>
	</g>
	<g>
		<path fill="#E2BA13" d="M21.574,69.675c0.632-0.633,1.785-0.513,2.563,0.265l0.781,0.781c0.778,0.777,0.897,1.931,0.265,2.563
			c-0.632,0.632-1.785,0.512-2.563-0.266l-0.781-0.781C21.061,71.46,20.942,70.307,21.574,69.675z"/>
	</g>
	<g>
		<path fill="#E2BA13" d="M2.812,64.019c0-0.894,0.9-1.625,2-1.625h1.104c1.1,0,2,0.731,2,1.625s-0.9,1.625-2,1.625H4.812
			C3.712,65.644,2.812,64.912,2.812,64.019z"/>
	</g>
	<g>
		<path fill="#E2BA13" d="M23.917,64.019c0-0.894,0.9-1.625,2-1.625h1.104c1.1,0,2,0.731,2,1.625s-0.9,1.625-2,1.625h-1.104
			C24.817,65.644,23.917,64.912,23.917,64.019z"/>
	</g>
</g>
<g>
	<path fill="#FFFFFF" d="M371.58,19.738c0,1.65-1.35,3-3,3h-0.883c-1.65,0-3-1.35-3-3V-4.429c0-1.65,1.35-3,3-3h0.883
		c1.65,0,3,1.35,3,3V19.738z"/>
</g>
<g>
	<path fill="#FFFFFF" d="M378.347,11.262c1.65,0,3,1.35,3,3v0.884c0,1.65-1.35,3-3,3h-24.168c-1.65,0-3-1.35-3-3v-0.884
		c0-1.65,1.35-3,3-3H378.347z"/>
</g>
<circle fill="#A92B34" stroke="#FFFFFF" stroke-width="2" stroke-miterlimit="10" cx="253.096" cy="29.237" r="13.542"/>
<path fill="none" stroke="#FFFFFF" stroke-width="2" stroke-miterlimit="10" d="M285.138,15.696c-7.704,0-14.957,1.918-21.32,5.292
	c1.761,2.286,2.819,5.14,2.819,8.249c0,7.478-6.063,13.541-13.541,13.541c-3.108,0-5.964-1.059-8.249-2.819
	c-3.374,6.363-5.293,13.616-5.293,21.32c0,25.175,20.407,45.583,45.584,45.583c25.176,0,45.584-20.408,45.584-45.583
	S310.314,15.696,285.138,15.696z"/>
<g>
	<path fill="#FFFFFF" d="M269.388,49.382c0,0.243-0.079,0.441-0.237,0.596c-0.159,0.154-0.341,0.23-0.546,0.23
		c-0.169,0-0.32-0.051-0.455-0.154c-0.136-0.102-0.241-0.242-0.315-0.42l-0.728-1.693h-4.173l-0.728,1.707
		c-0.065,0.178-0.166,0.316-0.301,0.414c-0.136,0.098-0.282,0.146-0.441,0.146c-0.242,0-0.427-0.065-0.553-0.195
		c-0.126-0.131-0.189-0.309-0.189-0.533c0-0.084,0.015-0.172,0.042-0.266l3.486-8.371c0.074-0.188,0.187-0.332,0.336-0.435
		s0.317-0.145,0.504-0.126c0.168,0,0.324,0.049,0.469,0.146c0.146,0.099,0.25,0.236,0.315,0.414l3.444,8.203
		C269.365,49.167,269.388,49.28,269.388,49.382z M263.621,46.33h2.8l-1.414-3.276L263.621,46.33z"/>
	<path fill="#FFFFFF" d="M269.473,52.658c-0.149-0.149-0.225-0.336-0.225-0.56v-0.154c0-0.373,0.238-0.631,0.714-0.77
		c0.299-0.094,0.488-0.25,0.567-0.47s0.119-0.524,0.119-0.917v-6.286c0-0.242,0.079-0.445,0.238-0.608
		c0.158-0.164,0.358-0.246,0.602-0.246c0.242,0,0.443,0.082,0.602,0.246c0.159,0.163,0.238,0.366,0.238,0.608v6.776
		c0,0.522-0.101,0.98-0.301,1.372c-0.201,0.392-0.476,0.694-0.826,0.909c-0.35,0.215-0.739,0.322-1.169,0.322
		C269.809,52.882,269.622,52.808,269.473,52.658z M270.789,41.584c-0.131-0.103-0.195-0.284-0.195-0.546v-0.266
		c0-0.262,0.069-0.443,0.21-0.547c0.14-0.102,0.363-0.153,0.672-0.153c0.326,0,0.555,0.052,0.686,0.153
		c0.131,0.104,0.196,0.285,0.196,0.547v0.266c0,0.271-0.068,0.455-0.203,0.553c-0.136,0.098-0.366,0.147-0.693,0.147
		C271.143,41.738,270.92,41.687,270.789,41.584z"/>
	<path fill="#FFFFFF" d="M280.98,48.409c-0.336,0.593-0.795,1.053-1.379,1.379c-0.583,0.327-1.225,0.49-1.925,0.49
		c-0.709,0-1.354-0.163-1.932-0.49c-0.579-0.326-1.036-0.786-1.372-1.379s-0.504-1.262-0.504-2.009s0.168-1.417,0.504-2.009
		c0.336-0.593,0.793-1.055,1.372-1.387c0.578-0.331,1.223-0.496,1.932-0.496c0.7,0,1.342,0.165,1.925,0.496
		c0.584,0.332,1.043,0.794,1.379,1.387c0.337,0.592,0.505,1.262,0.505,2.009S281.317,47.816,280.98,48.409z M279.517,45.175
		c-0.191-0.359-0.447-0.637-0.77-0.832c-0.322-0.197-0.679-0.295-1.071-0.295c-0.392,0-0.749,0.098-1.071,0.295
		c-0.321,0.195-0.578,0.473-0.77,0.832s-0.287,0.768-0.287,1.226c0,0.457,0.096,0.863,0.287,1.218
		c0.191,0.355,0.448,0.63,0.77,0.826c0.322,0.195,0.68,0.294,1.071,0.294c0.393,0,0.749-0.099,1.071-0.294
		c0.322-0.196,0.578-0.471,0.77-0.826c0.191-0.354,0.287-0.761,0.287-1.218C279.804,45.942,279.709,45.534,279.517,45.175z"/>
	<path fill="#FFFFFF" d="M289.045,42.894c0.158,0.163,0.237,0.366,0.237,0.608v3.556c0,1.009-0.277,1.797-0.833,2.367
		c-0.555,0.568-1.346,0.854-2.373,0.854c-1.026,0-1.815-0.285-2.365-0.854c-0.551-0.57-0.826-1.358-0.826-2.367v-3.556
		c0-0.242,0.079-0.445,0.238-0.608c0.158-0.164,0.358-0.246,0.602-0.246c0.242,0,0.443,0.082,0.602,0.246
		c0.159,0.163,0.238,0.366,0.238,0.608v3.556c0,0.57,0.126,0.992,0.378,1.268s0.63,0.413,1.134,0.413
		c0.514,0,0.896-0.138,1.148-0.413s0.378-0.697,0.378-1.268v-3.556c0-0.242,0.079-0.445,0.238-0.608
		c0.158-0.164,0.359-0.246,0.602-0.246C288.685,42.647,288.885,42.729,289.045,42.894z"/>
	<path fill="#FFFFFF" d="M295.071,48.745c0.107,0.126,0.161,0.292,0.161,0.497c0,0.252-0.138,0.464-0.413,0.638
		c-0.275,0.172-0.586,0.258-0.931,0.258c-0.579,0-1.066-0.123-1.463-0.371c-0.397-0.246-0.596-0.771-0.596-1.574v-3.864h-0.644
		c-0.225,0-0.411-0.075-0.561-0.224c-0.149-0.149-0.224-0.336-0.224-0.561c0-0.215,0.074-0.395,0.224-0.539s0.336-0.217,0.561-0.217
		h0.644v-0.896c0-0.242,0.082-0.445,0.245-0.608s0.366-0.245,0.609-0.245c0.233,0,0.429,0.082,0.588,0.245
		c0.158,0.163,0.238,0.366,0.238,0.608v0.896h0.993c0.225,0,0.411,0.074,0.561,0.225c0.149,0.148,0.224,0.336,0.224,0.56
		c0,0.215-0.074,0.395-0.224,0.539s-0.336,0.217-0.561,0.217h-0.993v3.794c0,0.196,0.051,0.338,0.153,0.428
		c0.103,0.088,0.243,0.133,0.42,0.133c0.075,0,0.178-0.02,0.309-0.057c0.111-0.047,0.219-0.07,0.322-0.07
		C294.844,48.556,294.964,48.619,295.071,48.745z"/>
	<path fill="#FFFFFF" d="M303.212,46.765c-0.168,0.14-0.364,0.209-0.588,0.209h-4.62c0.111,0.551,0.368,0.982,0.77,1.295
		c0.401,0.313,0.854,0.47,1.358,0.47c0.383,0,0.681-0.035,0.896-0.104c0.215-0.07,0.386-0.145,0.512-0.225
		c0.126-0.079,0.212-0.133,0.259-0.161c0.168-0.084,0.326-0.126,0.476-0.126c0.196,0,0.364,0.07,0.504,0.21
		c0.141,0.14,0.21,0.304,0.21,0.49c0,0.252-0.131,0.481-0.392,0.687c-0.262,0.215-0.611,0.396-1.05,0.545
		c-0.439,0.15-0.882,0.225-1.33,0.225c-0.784,0-1.468-0.163-2.051-0.49c-0.584-0.326-1.034-0.777-1.352-1.352
		c-0.317-0.573-0.476-1.22-0.476-1.938c0-0.802,0.168-1.507,0.504-2.114c0.336-0.605,0.779-1.07,1.33-1.393s1.139-0.482,1.764-0.482
		c0.616,0,1.197,0.168,1.743,0.504s0.982,0.788,1.309,1.357c0.327,0.569,0.49,1.186,0.49,1.848
		C303.468,46.442,303.38,46.624,303.212,46.765z M298.017,45.574h3.668v-0.099c-0.037-0.392-0.229-0.728-0.574-1.008
		c-0.345-0.279-0.737-0.42-1.176-0.42C298.852,44.048,298.214,44.558,298.017,45.574z"/>
	<path fill="#FFFFFF" d="M309.476,42.746c0.191,0.159,0.287,0.346,0.287,0.56c0,0.29-0.075,0.507-0.224,0.651
		c-0.149,0.146-0.327,0.218-0.532,0.218c-0.14,0-0.299-0.033-0.476-0.099c-0.028-0.009-0.092-0.028-0.189-0.056
		c-0.098-0.028-0.203-0.043-0.315-0.043c-0.242,0-0.476,0.076-0.699,0.225c-0.225,0.149-0.409,0.376-0.554,0.68
		c-0.145,0.303-0.217,0.664-0.217,1.084v3.318c0,0.242-0.079,0.445-0.238,0.609c-0.158,0.163-0.359,0.244-0.602,0.244
		c-0.243,0-0.443-0.081-0.602-0.244c-0.159-0.164-0.238-0.367-0.238-0.609v-5.782c0-0.242,0.079-0.445,0.238-0.608
		c0.158-0.164,0.358-0.246,0.602-0.246c0.242,0,0.443,0.082,0.602,0.246c0.159,0.163,0.238,0.366,0.238,0.608v0.183
		c0.215-0.383,0.522-0.675,0.924-0.875c0.401-0.201,0.831-0.301,1.288-0.301C309.05,42.509,309.285,42.587,309.476,42.746z"/>
	<path fill="#FFFFFF" d="M280.043,59.692c0.158,0.164,0.237,0.367,0.237,0.609v3.557c0,1.008-0.277,1.797-0.833,2.365
		c-0.555,0.57-1.346,0.854-2.373,0.854c-1.026,0-1.815-0.284-2.365-0.854c-0.551-0.568-0.826-1.357-0.826-2.365v-3.557
		c0-0.242,0.079-0.445,0.238-0.609c0.158-0.162,0.358-0.244,0.602-0.244c0.242,0,0.443,0.082,0.602,0.244
		c0.159,0.164,0.238,0.367,0.238,0.609v3.557c0,0.568,0.126,0.991,0.378,1.267s0.63,0.413,1.134,0.413
		c0.514,0,0.896-0.138,1.148-0.413s0.378-0.698,0.378-1.267v-3.557c0-0.242,0.079-0.445,0.238-0.609
		c0.158-0.162,0.359-0.244,0.602-0.244C279.683,59.448,279.884,59.53,280.043,59.692z"/>
	<path fill="#FFFFFF" d="M288.078,60.155c0.364,0.564,0.546,1.346,0.546,2.345v3.584c0,0.243-0.079,0.446-0.237,0.608
		c-0.159,0.164-0.359,0.246-0.603,0.246c-0.242,0-0.443-0.082-0.602-0.246c-0.159-0.162-0.238-0.365-0.238-0.608V62.5
		c0-0.513-0.107-0.917-0.322-1.211s-0.583-0.44-1.105-0.44c-0.542,0-0.966,0.156-1.274,0.469c-0.308,0.313-0.462,0.707-0.462,1.183
		v3.584c0,0.243-0.079,0.446-0.238,0.608c-0.158,0.164-0.359,0.246-0.602,0.246c-0.243,0-0.443-0.082-0.602-0.246
		c-0.159-0.162-0.238-0.365-0.238-0.608v-5.782c0-0.242,0.079-0.445,0.238-0.609c0.158-0.162,0.358-0.244,0.602-0.244
		c0.242,0,0.443,0.082,0.602,0.244c0.159,0.164,0.238,0.367,0.238,0.609v0.238c0.252-0.336,0.581-0.625,0.987-0.868
		s0.852-0.364,1.337-0.364C287.056,59.308,287.715,59.591,288.078,60.155z"/>
	<path fill="#FFFFFF" d="M296.898,63.563c-0.168,0.141-0.364,0.211-0.588,0.211h-4.62c0.111,0.551,0.368,0.982,0.77,1.295
		s0.854,0.469,1.358,0.469c0.383,0,0.681-0.035,0.896-0.105s0.386-0.145,0.512-0.224s0.212-0.133,0.259-0.161
		c0.168-0.084,0.326-0.126,0.476-0.126c0.196,0,0.364,0.07,0.504,0.21c0.141,0.141,0.21,0.304,0.21,0.49
		c0,0.252-0.131,0.48-0.392,0.686c-0.262,0.215-0.611,0.396-1.05,0.547c-0.439,0.148-0.882,0.224-1.33,0.224
		c-0.784,0-1.468-0.163-2.051-0.49c-0.584-0.327-1.034-0.776-1.352-1.351s-0.476-1.221-0.476-1.939c0-0.803,0.168-1.507,0.504-2.113
		c0.336-0.607,0.779-1.072,1.33-1.394c0.551-0.322,1.139-0.483,1.764-0.483c0.616,0,1.197,0.168,1.743,0.504
		s0.982,0.789,1.309,1.358c0.327,0.569,0.49,1.186,0.49,1.849C297.154,63.242,297.066,63.424,296.898,63.563z M291.704,62.374h3.668
		v-0.098c-0.037-0.393-0.229-0.729-0.574-1.008c-0.345-0.281-0.737-0.42-1.176-0.42C292.539,60.849,291.9,61.356,291.704,62.374z"/>
	<path fill="#FFFFFF" d="M264.048,76.347c0.158,0.158,0.237,0.363,0.237,0.615v5.922c0,0.243-0.079,0.446-0.237,0.609
		c-0.159,0.164-0.359,0.245-0.603,0.245c-0.242,0-0.44-0.079-0.595-0.237c-0.154-0.159-0.235-0.359-0.245-0.603
		c-0.233,0.271-0.548,0.501-0.945,0.692c-0.396,0.191-0.813,0.287-1.253,0.287c-0.644,0-1.227-0.165-1.75-0.496
		c-0.522-0.332-0.936-0.791-1.238-1.379c-0.304-0.589-0.455-1.256-0.455-2.002c0-0.747,0.149-1.417,0.448-2.01
		c0.298-0.592,0.706-1.055,1.225-1.386c0.518-0.331,1.09-0.497,1.715-0.497c0.448,0,0.868,0.082,1.26,0.245
		c0.393,0.163,0.724,0.37,0.994,0.622v-0.014c0-0.242,0.079-0.445,0.238-0.608c0.158-0.163,0.359-0.245,0.602-0.245
		C263.688,76.108,263.888,76.188,264.048,76.347z M262.101,81.673c0.383-0.443,0.574-1,0.574-1.672c0-0.673-0.191-1.232-0.574-1.681
		s-0.877-0.672-1.484-0.672c-0.597,0-1.087,0.224-1.47,0.672s-0.574,1.008-0.574,1.681c0,0.672,0.189,1.229,0.567,1.672
		s0.87,0.666,1.477,0.666C261.224,82.339,261.719,82.116,262.101,81.673z"/>
	<path fill="#FFFFFF" d="M272.083,76.955c0.364,0.565,0.546,1.347,0.546,2.345v3.584c0,0.243-0.079,0.446-0.237,0.609
		c-0.159,0.164-0.359,0.245-0.603,0.245c-0.242,0-0.443-0.081-0.602-0.245c-0.159-0.163-0.238-0.366-0.238-0.609V79.3
		c0-0.513-0.107-0.916-0.322-1.211c-0.215-0.293-0.583-0.44-1.105-0.44c-0.542,0-0.966,0.156-1.274,0.469
		c-0.308,0.313-0.462,0.707-0.462,1.183v3.584c0,0.243-0.079,0.446-0.238,0.609c-0.158,0.164-0.359,0.245-0.602,0.245
		c-0.243,0-0.443-0.081-0.602-0.245c-0.159-0.163-0.238-0.366-0.238-0.609v-5.781c0-0.242,0.079-0.445,0.238-0.609
		c0.158-0.163,0.358-0.245,0.602-0.245c0.242,0,0.443,0.082,0.602,0.245c0.159,0.164,0.238,0.367,0.238,0.609v0.238
		c0.252-0.336,0.581-0.625,0.987-0.869c0.406-0.242,0.852-0.363,1.337-0.363C271.061,76.108,271.719,76.391,272.083,76.955z"/>
	<path fill="#FFFFFF" d="M280.427,76.955c0.364,0.565,0.546,1.347,0.546,2.345v3.584c0,0.243-0.079,0.446-0.237,0.609
		c-0.159,0.164-0.359,0.245-0.603,0.245c-0.242,0-0.443-0.081-0.602-0.245c-0.159-0.163-0.238-0.366-0.238-0.609V79.3
		c0-0.513-0.107-0.916-0.322-1.211c-0.215-0.293-0.583-0.44-1.105-0.44c-0.542,0-0.966,0.156-1.274,0.469
		c-0.308,0.313-0.462,0.707-0.462,1.183v3.584c0,0.243-0.079,0.446-0.238,0.609c-0.158,0.164-0.359,0.245-0.602,0.245
		c-0.243,0-0.443-0.081-0.602-0.245c-0.159-0.163-0.238-0.366-0.238-0.609v-5.781c0-0.242,0.079-0.445,0.238-0.609
		c0.158-0.163,0.358-0.245,0.602-0.245c0.242,0,0.443,0.082,0.602,0.245c0.159,0.164,0.238,0.367,0.238,0.609v0.238
		c0.252-0.336,0.581-0.625,0.987-0.869c0.406-0.242,0.852-0.363,1.337-0.363C279.405,76.108,280.063,76.391,280.427,76.955z"/>
	<path fill="#FFFFFF" d="M289.484,82.009c-0.336,0.594-0.795,1.053-1.379,1.379c-0.583,0.328-1.225,0.49-1.925,0.49
		c-0.709,0-1.354-0.162-1.932-0.49c-0.579-0.326-1.036-0.785-1.372-1.379c-0.336-0.592-0.504-1.262-0.504-2.008
		c0-0.747,0.168-1.417,0.504-2.01c0.336-0.592,0.793-1.055,1.372-1.386c0.578-0.331,1.223-0.497,1.932-0.497
		c0.7,0,1.342,0.166,1.925,0.497c0.584,0.331,1.043,0.794,1.379,1.386c0.337,0.593,0.505,1.263,0.505,2.01
		C289.989,80.747,289.821,81.417,289.484,82.009z M288.021,78.775c-0.191-0.359-0.447-0.638-0.77-0.833
		c-0.322-0.196-0.679-0.294-1.071-0.294c-0.392,0-0.749,0.098-1.071,0.294c-0.321,0.195-0.578,0.474-0.77,0.833
		s-0.287,0.768-0.287,1.226c0,0.457,0.096,0.863,0.287,1.217c0.191,0.355,0.448,0.631,0.77,0.826
		c0.322,0.196,0.68,0.295,1.071,0.295c0.393,0,0.749-0.099,1.071-0.295c0.322-0.195,0.578-0.471,0.77-0.826
		c0.191-0.354,0.287-0.76,0.287-1.217C288.308,79.543,288.213,79.135,288.021,78.775z"/>
	<path fill="#FFFFFF" d="M297.366,76.955c0.364,0.565,0.546,1.347,0.546,2.345v3.584c0,0.243-0.079,0.446-0.237,0.609
		c-0.159,0.164-0.359,0.245-0.603,0.245c-0.242,0-0.443-0.081-0.602-0.245c-0.159-0.163-0.238-0.366-0.238-0.609V79.3
		c0-0.513-0.107-0.916-0.322-1.211c-0.215-0.293-0.583-0.44-1.105-0.44c-0.542,0-0.966,0.156-1.274,0.469
		c-0.308,0.313-0.462,0.707-0.462,1.183v3.584c0,0.243-0.079,0.446-0.238,0.609c-0.158,0.164-0.359,0.245-0.602,0.245
		c-0.243,0-0.443-0.081-0.602-0.245c-0.159-0.163-0.238-0.366-0.238-0.609v-5.781c0-0.242,0.079-0.445,0.238-0.609
		c0.158-0.163,0.358-0.245,0.602-0.245c0.242,0,0.443,0.082,0.602,0.245c0.159,0.164,0.238,0.367,0.238,0.609v0.238
		c0.252-0.336,0.581-0.625,0.987-0.869c0.406-0.242,0.852-0.363,1.337-0.363C296.344,76.108,297.003,76.391,297.366,76.955z"/>
	<path fill="#FFFFFF" d="M304.912,76.479c0.485,0.247,0.729,0.576,0.729,0.986c0,0.206-0.062,0.385-0.183,0.539
		s-0.279,0.231-0.476,0.231c-0.149,0-0.271-0.021-0.364-0.063c-0.094-0.041-0.185-0.098-0.272-0.168
		c-0.089-0.07-0.176-0.128-0.26-0.175c-0.093-0.046-0.23-0.089-0.413-0.126c-0.182-0.037-0.328-0.056-0.44-0.056
		c-0.7,0-1.249,0.217-1.646,0.651c-0.396,0.434-0.595,1-0.595,1.701c0,0.672,0.2,1.229,0.603,1.672
		c0.4,0.443,0.914,0.666,1.539,0.666c0.458,0,0.799-0.057,1.022-0.168c0.056-0.029,0.133-0.078,0.231-0.147
		c0.098-0.07,0.188-0.124,0.272-0.161s0.187-0.057,0.309-0.057c0.232,0,0.417,0.075,0.553,0.225
		c0.135,0.149,0.203,0.341,0.203,0.574c0,0.224-0.131,0.434-0.393,0.63c-0.261,0.196-0.606,0.353-1.036,0.469
		c-0.429,0.116-0.887,0.175-1.372,0.175c-0.719,0-1.351-0.168-1.896-0.504s-0.969-0.8-1.267-1.393
		c-0.299-0.593-0.448-1.253-0.448-1.98c0-0.757,0.156-1.429,0.469-2.017s0.749-1.048,1.309-1.379
		c0.561-0.331,1.195-0.497,1.904-0.497C303.787,76.108,304.427,76.231,304.912,76.479z"/>
	<path fill="#FFFFFF" d="M313.396,80.364c-0.168,0.141-0.364,0.21-0.588,0.21h-4.62c0.111,0.551,0.368,0.982,0.77,1.295
		c0.401,0.313,0.854,0.47,1.358,0.47c0.383,0,0.681-0.035,0.896-0.105s0.386-0.145,0.512-0.225c0.126-0.078,0.212-0.133,0.259-0.16
		c0.168-0.084,0.326-0.127,0.476-0.127c0.196,0,0.364,0.07,0.504,0.211c0.141,0.14,0.21,0.303,0.21,0.49
		c0,0.252-0.131,0.48-0.392,0.686c-0.262,0.215-0.611,0.396-1.05,0.546c-0.439,0.149-0.882,0.224-1.33,0.224
		c-0.784,0-1.468-0.162-2.051-0.49c-0.584-0.326-1.034-0.776-1.352-1.351c-0.317-0.573-0.476-1.22-0.476-1.938
		c0-0.803,0.168-1.508,0.504-2.114s0.779-1.071,1.33-1.394s1.139-0.482,1.764-0.482c0.616,0,1.197,0.168,1.743,0.504
		s0.982,0.789,1.309,1.357c0.327,0.57,0.49,1.186,0.49,1.849C313.652,80.042,313.564,80.224,313.396,80.364z M308.202,79.175h3.668
		v-0.099c-0.037-0.392-0.229-0.728-0.574-1.008c-0.345-0.28-0.737-0.42-1.176-0.42C309.037,77.648,308.398,78.157,308.202,79.175z"
		/>
</g>
<g>
	<path fill-rule="evenodd" clip-rule="evenodd" fill="#FFFFFF" d="M135.306,52.286c-0.001,0.04-0.003,0.08-0.003,0.12
		c0,3.294,0,6.588,0,9.881c0,0.043,0,0.086,0,0.135c-3.386,0-6.761,0-10.146,0c0-0.049,0-0.092,0-0.135c0-3.291,0-6.581,0-9.872
		c0-0.043-0.002-0.086-0.004-0.129C128.538,52.286,131.922,52.286,135.306,52.286z M133.042,54.544c-1.877,0-3.747,0-5.621,0
		c0,1.877,0,3.749,0,5.624c1.877,0,3.747,0,5.621,0C133.042,58.29,133.042,56.418,133.042,54.544z"/>
	<path fill-rule="evenodd" clip-rule="evenodd" fill="#FFFFFF" d="M106.001,71.438c0.044,0.001,0.087,0.004,0.13,0.004
		c3.291,0,6.581,0,9.872,0c0.042,0,0.085,0,0.134,0c0,3.385,0,6.76,0,10.145c-0.049,0-0.092,0-0.134,0c-3.291,0-6.581,0-9.871,0
		c-0.044,0-0.087,0.002-0.131,0.004C106.001,78.206,106.001,74.822,106.001,71.438z M108.26,79.325c1.876,0,3.749,0,5.622,0
		c0-1.878,0-3.748,0-5.621c-1.876,0-3.746,0-5.622,0C108.26,75.58,108.26,77.45,108.26,79.325z"/>
	<path fill-rule="evenodd" clip-rule="evenodd" fill="#FFFFFF" d="M106.001,62.419c0-3.376,0-6.752,0-10.133
		c3.379,0,6.756,0,10.135,0c0.003,0.03,0.008,0.061,0.008,0.091c0,3.315,0,6.63,0,9.944c0,0.033-0.003,0.065-0.005,0.106
		c-0.047,0-0.083,0-0.12,0c-3.302,0-6.604,0-9.907,0C106.075,62.428,106.038,62.422,106.001,62.419z M113.883,60.168
		c0-1.879,0-3.75,0-5.623c-1.878,0-3.75,0-5.623,0c0,1.878,0,3.748,0,5.623C110.135,60.168,112.006,60.168,113.883,60.168z"/>
	<path fill-rule="evenodd" clip-rule="evenodd" fill="#FFFFFF" d="M120.655,54.537c-0.749,0-1.497,0-2.251,0
		c-0.002-0.028-0.005-0.049-0.005-0.069c-0.001-0.709-0.001-1.418,0-2.127c0-0.019,0.003-0.037,0.005-0.055c0.75,0,1.5,0,2.25,0
		C120.654,53.036,120.655,53.786,120.655,54.537z"/>
	<path fill-rule="evenodd" clip-rule="evenodd" fill="#FFFFFF" d="M106.001,64.688c0.192-0.002,0.384-0.005,0.575-0.005
		c0.555,0,1.108,0,1.677,0c0,0.755,0,1.505,0,2.256c-0.751-0.001-1.501-0.001-2.252-0.002
		C106.001,66.188,106.001,65.438,106.001,64.688z"/>
	<path fill-rule="evenodd" clip-rule="evenodd" fill="#FFFFFF" d="M129.68,79.35c-0.03-0.006-0.06-0.017-0.09-0.017
		c-0.7-0.001-1.4,0-2.101,0c-0.021,0-0.042,0.003-0.075,0.005c0,0.749,0,1.493,0,2.244c-0.757,0-1.502,0-2.258,0
		c0-0.045,0-0.084,0-0.123c0-1.423,0-2.845,0-4.268c0-0.042-0.008-0.085-0.012-0.128c0.03,0.005,0.061,0.013,0.091,0.013
		c0.697,0.001,1.395,0.001,2.091,0c0.027,0,0.053-0.004,0.087-0.007c0-0.045,0-0.081,0-0.118c0-0.672-0.001-1.344,0.001-2.017
		c0-0.035,0.01-0.071,0.016-0.106c0.033-0.002,0.067-0.005,0.102-0.005c0.675,0,1.35,0,2.024,0c0.036,0,0.071,0,0.106,0
		c0-0.758,0-1.5,0-2.247c-0.75,0-1.494,0-2.243,0c-0.002,0.022-0.006,0.04-0.006,0.058c0,0.706-0.001,1.412,0.001,2.118
		c0,0.026,0.012,0.052,0.018,0.078c-0.03-0.003-0.061-0.008-0.092-0.008c-0.697,0-1.394,0-2.091,0c-0.026,0-0.054,0.003-0.093,0.005
		c0,0.04,0,0.076,0,0.112c0,0.676,0,1.351,0,2.025c0,0.034-0.007,0.067-0.01,0.101c-0.04,0.004-0.079,0.011-0.118,0.011
		c-1.416,0-2.832,0-4.248,0c-0.039,0-0.079,0-0.129,0c0,0.047,0,0.083,0,0.119c0,0.678,0.001,1.356,0,2.035
		c0,0.04-0.004,0.08-0.007,0.12l0.002-0.002c-0.035-0.006-0.071-0.016-0.106-0.016c-0.672-0.001-1.345,0-2.017,0
		c-0.036,0-0.073,0-0.118,0c0-1.506,0-3.002,0-4.508c0.747,0,1.491,0,2.25,0c0-0.758,0-1.506,0-2.254l-0.003,0.002
		c1.363,0,2.727-0.001,4.091-0.001c0.133,0,0.266,0,0.409,0c0-0.75,0-1.494,0-2.246c2.634,0,5.257,0,7.891,0
		c0,0.743,0,1.488,0,2.243c0.756,0,1.502,0,2.253,0c0,1.504,0,2.999,0,4.506c-0.747,0-1.491,0-2.242,0
		c-0.003,0.038-0.007,0.065-0.007,0.093c0,0.697,0,1.395,0,2.091c0,0.028,0.005,0.056,0.008,0.083l0.002-0.002
		c-0.216-0.002-0.433-0.006-0.649-0.007c-0.157-0.002-0.315,0-0.482,0c0,0.75,0,1.495,0,2.247c-0.754,0-1.498,0-2.251,0
		c-0.002-0.025-0.006-0.052-0.006-0.079c-0.001-0.69-0.001-1.381,0-2.071C129.669,79.402,129.676,79.376,129.68,79.35
		c0.031-0.007,0.063-0.017,0.096-0.017c0.303-0.002,0.606-0.001,0.91-0.001c0.032,0,0.065,0,0.1,0c0-0.758,0-1.502,0-2.25
		c-0.374,0-0.741,0-1.113,0c-0.002,0.032-0.005,0.06-0.005,0.087c0,0.693,0,1.387,0.001,2.08
		C129.669,79.282,129.677,79.316,129.68,79.35z"/>
	<path fill-rule="evenodd" clip-rule="evenodd" fill="#FFFFFF" d="M108.25,66.937c0.749,0,1.497,0,2.258,0c0-0.752,0-1.497,0-2.253
		c3.386,0,6.761,0,10.146,0c0-1.134,0-2.258,0-3.381c0.746,0,1.492,0,2.247,0c0,1.127,0,2.246,0,3.377c1.881,0,3.754,0,5.63,0
		c0.003,0.031,0.007,0.052,0.007,0.073c0.001,0.709,0.001,1.419,0,2.128c0,0.021-0.005,0.043-0.007,0.063l0.003-0.002
		c-0.031-0.002-0.062-0.006-0.093-0.006c-0.685,0-1.369,0-2.055,0c-0.03,0-0.06,0-0.098,0c0,0.753,0,1.495,0,2.244
		c-1.129,0-2.252,0-3.381,0c0-0.745,0-1.488,0-2.237c-0.752,0-1.497,0-2.253,0c0,0.744,0,1.489,0,2.239c-1.881,0-3.751,0-5.632,0
		c0-0.745,0-1.489,0-2.24c-0.755,0-1.5,0-2.257,0c0,0.746,0,1.491,0,2.24c-1.507,0-3.002,0-4.512,0c0-0.036,0-0.072,0-0.107
		c0-0.676,0-1.352,0-2.027C108.254,67.011,108.251,66.974,108.25,66.937z"/>
	<path fill-rule="evenodd" clip-rule="evenodd" fill="#FFFFFF" d="M120.655,61.305c-0.713,0-1.425-0.001-2.137-0.002
		c-0.037,0-0.073,0-0.113,0c0-1.507,0-3.005,0-4.509c0.748,0,1.49,0,2.247,0c0-0.758,0-1.509,0-2.26
		c0.613,0.001,1.227,0.002,1.84,0.003c0.133,0.001,0.266,0,0.405,0c0,1.505,0,3.002,0,4.511c-0.746,0-1.49,0-2.242,0
		C120.655,59.808,120.655,60.557,120.655,61.305z"/>
	<path fill-rule="evenodd" clip-rule="evenodd" fill="#FFFFFF" d="M128.53,66.944c0.034-0.002,0.067-0.006,0.102-0.006
		c0.682-0.001,1.363-0.001,2.045-0.001c0.033,0,0.067,0,0.112,0c0-0.749,0-1.494,0-2.246c0.756,0,1.5,0,2.256,0
		c0,0.745,0,1.49,0,2.245c0.757,0,1.502,0,2.253,0c0,0.751,0,1.493,0,2.243c-2.249,0-4.499,0-6.759,0c0-0.034,0-0.067,0-0.101
		c0-0.679,0-1.356,0-2.035c0-0.034-0.004-0.067-0.006-0.102L128.53,66.944z"/>
	<path fill-rule="evenodd" clip-rule="evenodd" fill="#FFFFFF" d="M120.656,72.571c-0.749,0-1.497,0-2.252,0
		c0-0.753,0-1.498,0-2.248c0.749,0,1.493,0,2.249,0c0,0.753,0,1.502,0,2.25L120.656,72.571z"/>
	<path fill-rule="evenodd" clip-rule="evenodd" fill="#FFFFFF" d="M120.645,79.351c0.026-0.006,0.053-0.018,0.079-0.018
		c0.709-0.001,1.418-0.001,2.127,0c0.012,0,0.024,0.002,0.044,0.004c0,0.747,0,1.493,0,2.245c-0.743,0-1.485,0-2.241,0
		c0-0.036,0-0.071,0-0.107c0-0.675,0-1.35-0.001-2.024c0-0.034-0.004-0.068-0.006-0.102L120.645,79.351z"/>
	<path fill-rule="evenodd" clip-rule="evenodd" fill="#FFFFFF" d="M133.055,79.342c0.027-0.003,0.055-0.009,0.082-0.009
		c0.69-0.001,1.382-0.001,2.072-0.001c0.027,0,0.055,0.003,0.088,0.005c0,0.75,0,1.494,0,2.244c-0.75,0-1.494,0-2.245,0
		c-0.002-0.032-0.005-0.06-0.005-0.087c0-0.69,0-1.382,0.001-2.072c0-0.027,0.006-0.055,0.009-0.082L133.055,79.342z"/>
	<path fill-rule="evenodd" clip-rule="evenodd" fill="#FFFFFF" d="M128.544,59.042c0-1.123,0-2.243,0-3.368c1.124,0,2.244,0,3.371,0
		c0,1.12,0,2.24,0,3.368C130.795,59.042,129.672,59.042,128.544,59.042z"/>
	<path fill-rule="evenodd" clip-rule="evenodd" fill="#FFFFFF" d="M112.759,78.202c-1.126,0-2.243,0-3.367,0
		c0-1.125,0-2.247,0-3.374c1.123,0,2.242,0,3.367,0C112.759,75.953,112.759,77.073,112.759,78.202z"/>
	<path fill-rule="evenodd" clip-rule="evenodd" fill="#FFFFFF" d="M109.391,55.671c1.124,0,2.242,0,3.373,0c0,0.036,0,0.069,0,0.103
		c0,1.057-0.001,2.113,0.002,3.17c0,0.085-0.023,0.108-0.108,0.107c-1.057-0.003-2.113-0.001-3.17-0.001c-0.03,0-0.061,0-0.097,0
		C109.391,57.921,109.391,56.801,109.391,55.671z"/>
</g>
<g>
	<path fill="#FFFFFF" d="M380.179,77.081c-1.078,1.904-2.552,3.376-4.421,4.423c-1.872,1.049-3.93,1.572-6.174,1.572
		c-2.275,0-4.341-0.523-6.196-1.572c-1.855-1.047-3.321-2.519-4.397-4.423c-1.079-1.897-1.618-4.047-1.618-6.441
		s0.539-4.542,1.618-6.44c1.076-1.903,2.542-3.386,4.397-4.448c1.855-1.061,3.921-1.595,6.196-1.595
		c2.244,0,4.302,0.534,6.174,1.595c1.869,1.063,3.343,2.545,4.421,4.448c1.08,1.898,1.617,4.046,1.617,6.44
		S381.26,75.184,380.179,77.081z M375.488,66.712c-0.613-1.151-1.437-2.044-2.471-2.671c-1.031-0.63-2.176-0.945-3.433-0.945
		s-2.401,0.315-3.436,0.945c-1.03,0.627-1.854,1.52-2.468,2.671c-0.614,1.15-0.923,2.463-0.923,3.928
		c0,1.467,0.309,2.77,0.923,3.905c0.614,1.138,1.438,2.02,2.468,2.649c1.034,0.627,2.179,0.939,3.436,0.939s2.401-0.313,3.433-0.939
		c1.034-0.63,1.857-1.512,2.471-2.649c0.611-1.136,0.921-2.438,0.921-3.905C376.409,69.175,376.099,67.862,375.488,66.712z"/>
	<path fill="#FFFFFF" d="M385.951,77.914l7.858-8.531l-6.78-6.243c-0.718-0.627-1.078-1.299-1.078-2.02
		c0-0.567,0.263-1.127,0.785-1.683c0.525-0.553,1.118-0.831,1.773-0.831c0.751,0,1.407,0.287,1.976,0.853l9.608,9.294V41.834
		c0-0.778,0.255-1.43,0.763-1.953c0.51-0.523,1.151-0.786,1.929-0.786c0.78,0,1.425,0.263,1.933,0.786
		c0.511,0.523,0.765,1.175,0.765,1.953v38.053c0,0.78-0.254,1.43-0.765,1.953c-0.508,0.525-1.152,0.788-1.933,0.788
		c-0.777,0-1.419-0.263-1.929-0.788c-0.508-0.523-0.763-1.173-0.763-1.953v-4.712l-2.2-2.021l-8.081,8.528
		c-0.538,0.601-1.197,0.9-1.975,0.9c-0.658,0-1.281-0.254-1.86-0.763c-0.589-0.512-0.879-1.139-0.879-1.888
		C385.098,79.185,385.384,78.509,385.951,77.914z"/>
	<path fill="#FFFFFF" d="M411.743,49.313c-0.418-0.329-0.626-0.914-0.626-1.751v-0.854c0-0.839,0.224-1.422,0.672-1.751
		c0.45-0.328,1.167-0.495,2.156-0.495c1.047,0,1.779,0.167,2.2,0.495c0.416,0.329,0.629,0.912,0.629,1.751v0.854
		c0,0.868-0.22,1.458-0.653,1.771c-0.435,0.314-1.173,0.471-2.222,0.471C412.881,49.804,412.165,49.642,411.743,49.313z
		 M415.874,81.84c-0.508,0.525-1.151,0.788-1.929,0.788s-1.423-0.263-1.931-0.788c-0.51-0.523-0.765-1.173-0.765-1.953V61.346
		c0-0.777,0.255-1.428,0.765-1.953c0.508-0.523,1.153-0.786,1.931-0.786s1.421,0.263,1.929,0.786
		c0.509,0.525,0.766,1.176,0.766,1.953v18.541C416.639,80.667,416.383,81.316,415.874,81.84z"/>
	<path fill="#FFFFFF" d="M441.622,79.932c0,0.749-0.294,1.376-0.879,1.888c-0.583,0.509-1.204,0.763-1.86,0.763
		c-0.779,0-1.438-0.3-1.977-0.9l-8.08-8.528l-2.203,2.021v4.712c0,0.78-0.254,1.43-0.761,1.953
		c-0.509,0.525-1.151,0.788-1.931,0.788c-0.776,0-1.423-0.263-1.93-0.788c-0.51-0.523-0.764-1.173-0.764-1.953V41.834
		c0-0.778,0.254-1.43,0.764-1.953c0.507-0.523,1.153-0.786,1.93-0.786c0.779,0,1.422,0.263,1.931,0.786
		c0.507,0.523,0.761,1.175,0.761,1.953v26.919l9.61-9.294c0.568-0.565,1.225-0.853,1.974-0.853c0.658,0,1.249,0.278,1.773,0.831
		c0.525,0.556,0.787,1.115,0.787,1.683c0,0.721-0.36,1.393-1.078,2.02l-6.778,6.243l7.856,8.531
		C441.333,78.509,441.622,79.185,441.622,79.932z"/>
	<path fill="#FFFFFF" d="M466.806,77.081c-1.076,1.904-2.554,3.376-4.425,4.423c-1.869,1.049-3.926,1.572-6.171,1.572
		c-2.273,0-4.341-0.523-6.194-1.572c-1.857-1.047-3.324-2.519-4.402-4.423c-1.076-1.897-1.615-4.047-1.615-6.441
		s0.539-4.542,1.615-6.44c1.078-1.903,2.545-3.386,4.402-4.448c1.854-1.061,3.921-1.595,6.194-1.595
		c2.245,0,4.302,0.534,6.171,1.595c1.871,1.063,3.349,2.545,4.425,4.448c1.076,1.898,1.616,4.046,1.616,6.44
		S467.883,75.184,466.806,77.081z M462.116,66.712c-0.614-1.151-1.439-2.044-2.47-2.671c-1.032-0.63-2.178-0.945-3.436-0.945
		c-1.257,0-2.401,0.315-3.435,0.945c-1.032,0.627-1.857,1.52-2.47,2.671c-0.614,1.15-0.92,2.463-0.92,3.928
		c0,1.467,0.306,2.77,0.92,3.905c0.612,1.138,1.438,2.02,2.47,2.649c1.033,0.627,2.178,0.939,3.435,0.939
		c1.258,0,2.403-0.313,3.436-0.939c1.03-0.63,1.855-1.512,2.47-2.649c0.612-1.136,0.917-2.438,0.917-3.905
		C463.033,69.175,462.728,67.862,462.116,66.712z"/>
	<rect x="402.485" y="71.873" fill="#FFFFFF" width="1.733" height="2.93"/>
	<g>
		<g>
			<path fill="#FFFFFF" d="M453.84,44.914c-12.1,0-22,0.999-22,2.22s9.684,2.22,21.519,2.22s21.519,9.534,21.519,21.187
				c0,11.651-9.9,21.186-22,21.186h-80.269c-12.1,0-22-9.534-22-21.186c0-11.652,9.9-21.187,22-21.187h1.125
				c12.1,0,22-0.999,22-2.22s-9.9-2.22-22-2.22h-5.034c-12.1,0-22,9.9-22,22v7.342c0,12.1,9.9,22,22,22h88.176c12.1,0,22-9.9,22-22
				v-7.342c0-12.1-9.9-22-22-22H453.84z"/>
		</g>
	</g>
	<rect x="373.005" y="44.914" fill="#FFFFFF" width="22.729" height="4.439"/>
	<rect x="431.84" y="44.914" fill="#FFFFFF" width="21.544" height="4.439"/>
</g>
</svg>
