<?xml version="1.0" encoding="utf-8"?>
<!-- Generator: Adobe Illustrator 16.0.0, SVG Export Plug-In . SVG Version: 6.00 Build 0)  -->
<!DOCTYPE svg PUBLIC "-//W3C//DTD SVG 1.1//EN" "http://www.w3.org/Graphics/SVG/1.1/DTD/svg11.dtd">
<svg version="1.1" id="Calque_1" xmlns="http://www.w3.org/2000/svg" xmlns:xlink="http://www.w3.org/1999/xlink" x="0px" y="0px"
	 width="334.125px" height="110.918px" viewBox="0 0 334.125 110.918" enable-background="new 0 0 334.125 110.918"
	 xml:space="preserve">
<g id="Vexels">
	<g>
		<path fill="#123555" d="M40.314,11.722c-0.021-0.131-0.074-0.151-0.189-0.151c-2.124,0.003-4.248,0.003-6.372,0
			c-0.122,0-0.166,0.023-0.165,0.158c0.014,0.82,0.014,1.641,0,2.46c-0.001,0.133,0.04,0.159,0.164,0.159
			c1.163-0.004,2.325-0.003,3.487-0.003c0.06,0,0.119,0,0.182,0c-0.013,0.181-0.065,0.338-0.127,0.495
			c-0.247,0.701-0.692,1.239-1.312,1.65c-0.59,0.362-1.235,0.545-1.921,0.604c-1.249,0.109-2.354-0.229-3.297-1.057
			c-0.568-0.498-0.952-1.12-1.208-1.826c-0.143-0.481-0.227-0.97-0.204-1.474c0.013-0.409,0.101-0.804,0.201-1.197
			c-0.011-0.003-0.015-0.006-0.019-0.009c0.008-0.015,0.021-0.029,0.021-0.044c0.98-2.728,4.3-3.68,6.547-1.938
			c0.087,0.067,0.124,0.037,0.184-0.023c0.628-0.631,1.258-1.262,1.896-1.889c0.078-0.077,0.095-0.12-0.001-0.198
			c-1.792-1.462-3.824-1.998-6.101-1.547c-1.604,0.32-2.938,1.133-4.01,2.38c-0.382,0.447-0.713,0.929-0.951,1.471
			c0.003,0.002,0.006,0.005,0.017,0.007c-0.022,0.038-0.051,0.075-0.063,0.115c-0.646,1.423-0.813,2.904-0.517,4.436
			c0.111,0.608,0.304,1.196,0.601,1.745c0.019,0.044,0.035,0.091,0.058,0.134c1.604,3.163,5.439,4.673,8.781,3.457
			c0.846-0.308,1.609-0.75,2.261-1.376c0.204-0.155,0.377-0.345,0.536-0.543C40.212,15.951,40.675,13.941,40.314,11.722z"/>
		<path fill="#123555" d="M14.405,5.762c2.101,0,4.202,0,6.304,0c0.508,0,0.824,0.318,0.824,0.829c0,4.203-0.003,8.405,0.004,12.607
			c0,0.468-0.362,0.837-0.831,0.831c-1.145-0.014-2.289-0.004-3.434-0.004c-0.146,0-0.146,0-0.146-0.135c0-1.743,0-3.486,0-5.229
			c0-0.137,0-0.137,0.146-0.137c0.532,0,1.063-0.002,1.597,0.001c0.09,0,0.124-0.025,0.136-0.121
			c0.079-0.652,0.165-1.304,0.253-1.954c0.02-0.096-0.013-0.122-0.104-0.122c-0.629,0.003-1.259,0-1.889,0.004
			c-0.104,0-0.14-0.025-0.138-0.128c0.014-0.48,0.001-0.96,0.021-1.44c0.003-0.128,0.038-0.263,0.088-0.382
			c0.136-0.317,0.42-0.414,0.729-0.428c0.409-0.019,0.82-0.014,1.23-0.018c0.146-0.001,0.15,0,0.15-0.149c0-0.553,0-1.106,0-1.66
			c0-0.151,0-0.158-0.155-0.165c-0.573-0.024-1.146-0.069-1.719-0.06c-0.723,0.012-1.359,0.245-1.868,0.774
			c-0.396,0.405-0.607,0.899-0.684,1.449c-0.045,0.354-0.042,0.714-0.051,1.071c-0.007,0.337-0.005,0.675,0.001,1.012
			c0.002,0.099-0.029,0.122-0.125,0.121c-0.536-0.003-1.064,0-1.604-0.004c-0.104-0.001-0.145,0.029-0.144,0.135
			c0.007,0.644,0.007,1.287,0,1.931c0,0.099,0.029,0.133,0.136,0.132c0.527-0.004,1.063-0.002,1.599-0.001
			c0.139,0,0.139,0,0.139,0.134c0,1.746,0,3.492,0.002,5.239c0,0.099-0.021,0.13-0.128,0.13c-2.229-0.003-4.466-0.002-6.7-0.002
			c-0.438,0-0.771-0.335-0.771-0.781c0-4.233,0-8.467,0-12.701c0-0.445,0.334-0.78,0.772-0.78
			C10.168,5.761,12.287,5.762,14.405,5.762z"/>
	</g>
	<g>
		<circle fill="#E6EBF1" cx="58.576" cy="18.121" r="12.623"/>
		<circle fill="#657E93" cx="53.816" cy="14.529" r="1.637"/>
		<circle fill="#657E93" cx="63.337" cy="14.529" r="1.637"/>
		<path fill="#657E93" d="M58.576,25.961c3.572,0,6.468-2.894,6.468-6.466H52.109C52.109,23.067,55.005,25.961,58.576,25.961z"/>
	</g>
	<g>
		<circle fill="#E6EBF1" cx="89.336" cy="18.121" r="12.622"/>
		<circle fill="#657E93" cx="84.576" cy="14.53" r="1.636"/>
		<circle fill="#657E93" cx="94.095" cy="14.53" r="1.636"/>
		<path fill="#657E93" d="M89.335,19.497c-3.565,0-6.467,2.893-6.467,6.466h12.934C95.802,22.39,92.908,19.497,89.335,19.497z"/>
	</g>
	<g>
		<path fill="#A0ADBD" d="M14.405,24.262c2.101,0,4.202,0,6.304,0c0.508,0,0.824,0.318,0.824,0.829
			c0,4.203-0.003,8.405,0.004,12.607c0,0.468-0.362,0.837-0.831,0.831c-1.145-0.014-2.289-0.004-3.434-0.004
			c-0.146,0-0.146,0-0.146-0.135c0-1.743,0-3.486,0-5.229c0-0.137,0-0.137,0.146-0.137c0.532,0,1.063-0.002,1.597,0.001
			c0.09,0,0.124-0.025,0.136-0.121c0.079-0.652,0.165-1.304,0.253-1.954c0.02-0.096-0.013-0.122-0.104-0.122
			c-0.629,0.003-1.259,0-1.889,0.004c-0.104,0-0.14-0.025-0.138-0.128c0.014-0.48,0.001-0.96,0.021-1.44
			c0.003-0.128,0.038-0.263,0.088-0.382c0.136-0.317,0.42-0.414,0.729-0.428c0.409-0.019,0.82-0.014,1.23-0.018
			c0.146-0.001,0.15,0,0.15-0.149c0-0.553,0-1.106,0-1.66c0-0.151,0-0.158-0.155-0.165c-0.573-0.024-1.146-0.069-1.719-0.06
			c-0.723,0.012-1.359,0.245-1.868,0.774c-0.396,0.405-0.607,0.899-0.684,1.449c-0.045,0.354-0.042,0.714-0.051,1.071
			c-0.007,0.337-0.005,0.675,0.001,1.012c0.002,0.099-0.029,0.122-0.125,0.121c-0.536-0.003-1.064,0-1.604-0.004
			c-0.104-0.001-0.145,0.029-0.144,0.135c0.007,0.644,0.007,1.287,0,1.931c0,0.099,0.029,0.133,0.136,0.132
			c0.527-0.004,1.063-0.002,1.599-0.001c0.139,0,0.139,0,0.139,0.134c0,1.746,0,3.492,0.002,5.239c0,0.099-0.021,0.13-0.128,0.13
			c-2.229-0.003-4.466-0.002-6.7-0.002c-0.438,0-0.771-0.335-0.771-0.781c0-4.233,0-8.467,0-12.701c0-0.445,0.334-0.78,0.772-0.78
			C10.168,24.261,12.287,24.262,14.405,24.262z"/>
	</g>
</g>
<path fill="#A0ADBD" d="M42.029,27.182c0.561-0.025,1.084-0.207,1.604-0.391c0.08-0.029,0.161-0.053,0.241-0.08l-0.001-0.002
	c-0.074,0.266-0.276,0.44-0.441,0.64c-0.342,0.41-0.729,0.769-1.153,1.085c-0.092,0.067-0.122,0.139-0.12,0.251
	c0.041,2.674-0.818,5.036-2.547,7.061c-1.521,1.777-3.454,2.855-5.762,3.257c-1.563,0.272-3.104,0.224-4.639-0.183
	c-0.947-0.254-1.85-0.641-2.688-1.16c-0.023-0.014-0.041-0.034-0.109-0.092c1.951,0.166,3.675-0.297,5.247-1.461
	c-0.261-0.043-0.478-0.065-0.688-0.116c-1.229-0.299-2.078-1.036-2.566-2.199c-0.056-0.136-0.075-0.2,0.127-0.177
	c0.424,0.048,0.854,0.067,1.313-0.08c-1.745-0.563-2.68-1.718-2.794-3.562c0.408,0.185,0.785,0.334,1.188,0.404
	c0.094,0.017,0.194,0.033,0.229-0.035c0.033-0.071-0.063-0.131-0.121-0.18c-0.685-0.584-1.083-1.325-1.213-2.207
	c-0.111-0.755,0.017-1.479,0.362-2.163c0.073-0.145,0.121-0.119,0.207-0.019c0.563,0.656,1.189,1.236,1.896,1.732
	c1.36,0.959,2.867,1.563,4.521,1.786c0.214,0.029,0.432,0.043,0.643,0.079c0.219,0.037,0.23-0.055,0.206-0.241
	c-0.111-0.724-0.022-1.422,0.294-2.091c1.045-2.213,4.017-2.753,5.771-1.044c0.092,0.09,0.171,0.115,0.302,0.085
	c0.73-0.166,1.421-0.436,2.104-0.825c-0.104,0.411-0.297,0.736-0.523,1.046c-0.203,0.279-0.443,0.518-0.728,0.722
	c-0.063,0.045-0.138,0.079-0.163,0.162c-0.006,0-0.013,0-0.021,0.002c-0.005,0.001-0.005,0.008-0.006,0.012
	C42.015,27.194,42.023,27.188,42.029,27.182z"/>
<g>
	<g>
		<path fill="#5F809A" d="M127.873,3.85c-11.271,0-20.411,9.138-20.411,20.411c0,11.272,9.142,20.411,20.411,20.411
			c11.271,0,20.411-9.139,20.411-20.411C148.284,12.988,139.145,3.85,127.873,3.85z M127.873,40.877
			c-9.178,0-16.616-7.439-16.616-16.616c0-9.177,7.438-16.616,16.616-16.616c9.177,0,16.615,7.439,16.615,16.616
			C144.488,33.438,137.05,40.877,127.873,40.877z"/>
	</g>
	<g>
		<g>
			<g>
				<path fill="#A92B34" d="M133.658,31.07c-0.389,0.389-1.025,0.389-1.414,0l-11.299-11.298c-0.389-0.389-0.389-1.025,0-1.414
					l1.025-1.025c0.389-0.389,1.021-0.389,1.409,0l11.302,11.298c0.389,0.389,0.389,1.025,0,1.414L133.658,31.07z"/>
			</g>
			<g>
				<path fill="#A92B34" d="M134.801,18.357c0.393,0.389,0.393,1.025,0,1.414l-11.417,11.417c-0.389,0.389-1.021,0.389-1.409,0
					l-1.025-1.025c-0.389-0.389-0.389-1.026,0-1.415l11.416-11.416c0.39-0.389,1.025-0.389,1.414,0L134.801,18.357z"/>
			</g>
		</g>
	</g>
</g>
<g id="_x31_280_x5F_00A_x5F_logo_x5F_V3" transform="translate(-220.000000, -323.000000)">
	<g id="Logo-big" transform="translate(208.000000, 300.000000)">
		<text transform="matrix(1 0 0 1 111.8635 319)" fill="#123555" font-family="'Reader-Medium'" font-size="114">Mister Isidor</text>
		<g id="Logo_V3" transform="translate(0.000000, 11.000000)">
			<circle id="Oval" fill="#123555" cx="8.689" cy="272.717" r="6.3"/>
			<path id="Shape" fill="none" stroke="#123555" stroke-width="9" stroke-linecap="round" stroke-linejoin="round" d="
				M-8.637,293.2c8.601,7.699,21.601,9.1,31.9,2.6c10.396-6.5,14.697-19.1,11.197-30.3"/>
			<path id="Shape_1_" fill="none" stroke="#123555" stroke-width="9" stroke-linecap="round" stroke-linejoin="round" d="
				M39.464,303.8l35.103,35.5"/>
			
				<circle id="Oval_1_" fill="none" stroke="#123555" stroke-width="9" stroke-linecap="round" stroke-linejoin="round" cx="8.671" cy="272.707" r="43.7"/>
			<g id="Group" transform="translate(77.000000, 78.000000)">
				<path id="Shape_2_" fill="#FF421D" d="M-24.137,270.399c-1.2,0-2.3-0.5-3.2-1.301l-18.3-18.5c-1.1-1.102-1.6-2.802-1.1-4.398
					c0.396-1.602,1.6-2.801,3.197-3.2l18.399-4.8l5-18.2c0.399-1.601,1.601-2.8,3.2-3.2c0.397-0.1,0.8-0.1,1.1-0.1
					c1.2,0,2.301,0.5,3.2,1.3l18.3,18.5c1.104,1.101,1.604,2.8,1.2,4.3c-0.399,1.5-1.601,2.7-3.101,3.2l-18.103,5.3l-5.5,17.9
					c-0.5,1.5-1.699,2.699-3.199,3.1C-23.437,270.399-23.837,270.399-24.137,270.399z"/>
				<path id="Shape_3_" fill="#FFFFFF" d="M-15.837,221.2l18.301,18.5l-20.397,6l-6.2,20.199l-18.3-18.5l20.897-5.5L-15.837,221.2z
					 M-15.837,212.2c-0.8,0-1.5,0.1-2.3,0.3c-3.1,0.8-5.6,3.2-6.399,6.3l-4.301,15.7l-15.896,4.2c-3.104,0.8-5.5,3.199-6.4,6.3
					c-0.8,3.101,0,6.399,2.3,8.7l18.301,18.5c1.699,1.699,4,2.699,6.399,2.699c0.7,0,1.4-0.103,2.2-0.301
					c3.1-0.802,5.5-3.102,6.5-6.102l4.8-15.602l15.8-4.602c3-0.898,5.4-3.3,6.2-6.398c0.8-3.102-0.1-6.301-2.3-8.602l-18.3-18.5
					C-11.137,213.101-13.437,212.2-15.837,212.2z"/>
			</g>
		</g>
	</g>
</g>
<g id="Components_x2F_Header---Solid" transform="translate(-539.000000, -21.000000)">
	<g id="Logo_small">
		<g transform="translate(536.000000, 15.000000)">
			<text transform="matrix(1 0 0 1 209.5779 -181)" fill="#123555" font-family="'Reader-Medium'" font-size="28">Mister Isidor</text>
			<g id="Logo_V3_1_" transform="translate(0.000000, 3.000000)">
				
					<ellipse id="Oval_3_" transform="matrix(0.1057 -0.9944 0.9944 0.1057 354.2812 10.7095)" fill="#123555" cx="183.094" cy="-191.606" rx="1.608" ry="1.597"/>
				<path id="Shape_7_" fill="none" stroke="#123555" stroke-width="2.2817" stroke-linecap="round" stroke-linejoin="round" d="
					M178.684-186.414c2.193,1.952,5.515,2.307,8.145,0.659c2.655-1.648,3.753-4.842,2.86-7.682"/>
				<path id="Shape_6_" fill="none" stroke="#123555" stroke-width="2.2817" stroke-linecap="round" stroke-linejoin="round" d="
					M190.965-183.727l8.966,9"/>
				
					<ellipse id="Oval_2_" transform="matrix(0.8458 -0.5335 0.5335 0.8458 130.4577 68.1423)" fill="none" stroke="#123555" stroke-width="2.2817" stroke-linecap="round" stroke-linejoin="round" cx="183.107" cy="-191.606" rx="11.158" ry="11.078"/>
				<g id="Group_1_" transform="translate(19.659574, 19.774648)">
					<path id="Shape_5_" fill="#FF421D" d="M174.727-192.195c-0.307,0-0.588-0.127-0.813-0.329l-4.676-4.69
						c-0.278-0.279-0.406-0.71-0.278-1.115c0.103-0.406,0.406-0.71,0.814-0.812l4.697-1.217l1.277-4.614
						c0.102-0.405,0.405-0.71,0.813-0.811c0.104-0.025,0.205-0.025,0.281-0.025c0.307,0,0.588,0.126,0.815,0.329l4.674,4.688
						c0.277,0.278,0.406,0.709,0.307,1.09c-0.101,0.381-0.409,0.685-0.792,0.811l-4.621,1.344l-1.404,4.539
						c-0.127,0.38-0.434,0.684-0.813,0.785C174.906-192.195,174.803-192.195,174.727-192.195z"/>
					<path id="Shape_4_" fill="#FFFFFF" d="M176.846-204.667l4.672,4.689l-5.208,1.521l-1.583,5.121l-4.672-4.689l5.336-1.395
						L176.846-204.667z M176.846-206.949c-0.204,0-0.383,0.025-0.588,0.076c-0.791,0.203-1.43,0.813-1.633,1.597l-1.102,3.98
						l-4.06,1.065c-0.791,0.202-1.404,0.812-1.634,1.597c-0.204,0.786,0,1.623,0.587,2.206l4.672,4.69
						c0.435,0.431,1.021,0.684,1.635,0.684c0.179,0,0.357-0.025,0.563-0.076c0.792-0.202,1.401-0.785,1.656-1.546l1.229-3.955
						l4.033-1.166c0.766-0.228,1.379-0.837,1.584-1.622c0.203-0.787-0.026-1.598-0.588-2.181l-4.675-4.69
						C178.045-206.721,177.459-206.949,176.846-206.949z"/>
				</g>
			</g>
		</g>
	</g>
</g>
<g>
	<path fill="#123555" d="M1482.812,1379.999c-7.87,0-14.25,6.38-14.25,14.25s6.38,14.25,14.25,14.25s14.25-6.38,14.25-14.25
		S1490.682,1379.999,1482.812,1379.999z M1482.812,1405.874c-6.42,0-11.625-5.205-11.625-11.625s5.205-11.625,11.625-11.625
		s11.625,5.205,11.625,11.625S1489.232,1405.874,1482.812,1405.874z"/>
	<rect x="1481.437" y="1386.999" fill="#123555" width="1.875" height="7.875"/>
	
		<rect x="1484.512" y="1392.136" transform="matrix(0.4973 -0.8676 0.8676 0.4973 -464.4791 1990.5146)" fill="#123555" width="1.875" height="7.876"/>
</g>
<g>
	<path fill="#FFFFFF" d="M61.642,54.587c-4.326,0-7.833,3.508-7.833,7.834s3.507,7.834,7.833,7.834c4.323,0,7.833-3.508,7.833-7.834
		S65.969,54.587,61.642,54.587z M61.642,68.812c-3.529,0-6.394-2.858-6.394-6.391c0-3.529,2.861-6.391,6.394-6.391
		c3.527,0,6.391,2.861,6.391,6.391C68.033,65.951,65.172,68.812,61.642,68.812z"/>
	<rect x="60.979" y="57.937" fill="#FFFFFF" width="1.327" height="4.807"/>
	
		<rect x="62.922" y="60.958" transform="matrix(0.4975 -0.8674 0.8674 0.4975 -23.1334 86.9841)" fill="#FFFFFF" width="1.193" height="5.005"/>
</g>
<rect x="270.984" y="-142.876" fill="none" width="177.5" height="59.5"/>
<text transform="matrix(1 0 0 1 270.9841 -135.1953)" font-family="'RageItalic'" font-size="12">L’affiche</text>
<path fill="none" stroke="#FFFFFF" stroke-width="1.5" stroke-miterlimit="10" d="M46.456,61.128l-2.534,2.066
	c-0.146,0.121-0.214,0.32-0.173,0.521l0.76,3.121c0.107,0.507-0.267,0.92-0.707,0.92c-0.133,0-0.267-0.039-0.387-0.12l-2.761-1.692
	c-0.161-0.107-0.374-0.107-0.534,0l-2.733,1.692c-0.12,0.081-0.268,0.12-0.4,0.12c-0.44,0-0.84-0.413-0.707-0.92l0.761-3.121
	c0.04-0.188-0.014-0.388-0.174-0.508l-2.467-2.08c-0.507-0.441-0.214-1.281,0.439-1.32l3.229-0.228
	c0.187-0.015,0.359-0.134,0.439-0.32l1.229-3.001c0.133-0.308,0.413-0.467,0.693-0.467c0.279,0,0.56,0.159,0.693,0.467l1.228,3.001
	c0.066,0.175,0.24,0.294,0.44,0.32l3.229,0.228C46.682,59.847,46.976,60.687,46.456,61.128z"/>
<g>
	<path fill="#FFFFFF" d="M198.163,132.505c-0.506,0.893-1.197,1.583-2.074,2.074c-0.878,0.492-1.843,0.738-2.896,0.738
		c-1.067,0-2.036-0.246-2.907-0.738c-0.87-0.491-1.558-1.182-2.063-2.074c-0.506-0.891-0.759-1.898-0.759-3.021
		s0.253-2.131,0.759-3.021c0.505-0.893,1.192-1.588,2.063-2.086c0.871-0.498,1.84-0.748,2.907-0.748c1.053,0,2.018,0.25,2.896,0.748
		c0.877,0.498,1.568,1.193,2.074,2.086c0.506,0.891,0.758,1.898,0.758,3.021S198.669,131.614,198.163,132.505z M195.962,127.641
		c-0.287-0.54-0.674-0.958-1.158-1.253s-1.021-0.443-1.61-0.443c-0.59,0-1.127,0.148-1.611,0.443
		c-0.483,0.295-0.87,0.713-1.158,1.253s-0.433,1.155-0.433,1.843s0.145,1.299,0.433,1.832s0.675,0.947,1.158,1.242
		c0.484,0.295,1.021,0.441,1.611,0.441c0.589,0,1.126-0.146,1.61-0.441s0.871-0.709,1.158-1.242s0.432-1.145,0.432-1.832
		S196.249,128.181,195.962,127.641z"/>
	<path fill="#FFFFFF" d="M200.87,132.896l3.686-4.002l-3.18-2.928c-0.337-0.295-0.506-0.61-0.506-0.947
		c0-0.267,0.123-0.529,0.368-0.79c0.246-0.259,0.524-0.39,0.832-0.39c0.352,0,0.66,0.135,0.927,0.4l4.507,4.359v-12.627
		c0-0.365,0.119-0.671,0.357-0.916c0.239-0.246,0.54-0.369,0.905-0.369s0.668,0.123,0.906,0.369
		c0.239,0.245,0.358,0.551,0.358,0.916v17.85c0,0.365-0.119,0.67-0.358,0.916c-0.238,0.246-0.541,0.369-0.906,0.369
		s-0.666-0.123-0.905-0.369c-0.238-0.246-0.357-0.551-0.357-0.916v-2.211l-1.032-0.948l-3.79,4.001
		c-0.253,0.281-0.562,0.422-0.927,0.422c-0.309,0-0.601-0.119-0.873-0.357c-0.275-0.24-0.412-0.534-0.412-0.886
		C200.469,133.491,200.603,133.175,200.87,132.896z"/>
	<path fill="#FFFFFF" d="M212.969,119.479c-0.196-0.154-0.294-0.429-0.294-0.821v-0.4c0-0.394,0.104-0.667,0.315-0.821
		s0.547-0.232,1.011-0.232c0.491,0,0.835,0.078,1.032,0.232c0.195,0.154,0.295,0.428,0.295,0.821v0.4
		c0,0.407-0.103,0.684-0.306,0.831c-0.204,0.147-0.551,0.221-1.043,0.221C213.502,119.71,213.166,119.634,212.969,119.479z
		 M214.906,134.737c-0.238,0.246-0.54,0.369-0.905,0.369c-0.364,0-0.667-0.123-0.905-0.369c-0.239-0.246-0.358-0.551-0.358-0.916
		v-8.697c0-0.365,0.119-0.67,0.358-0.916c0.238-0.246,0.541-0.369,0.905-0.369c0.365,0,0.667,0.123,0.905,0.369
		s0.359,0.551,0.359,0.916v8.697C215.265,134.187,215.144,134.491,214.906,134.737z"/>
	<path fill="#FFFFFF" d="M226.983,133.842c0,0.352-0.138,0.646-0.412,0.886c-0.273,0.238-0.564,0.357-0.873,0.357
		c-0.365,0-0.674-0.141-0.927-0.422l-3.79-4.001l-1.033,0.948v2.211c0,0.365-0.119,0.67-0.357,0.916s-0.54,0.369-0.905,0.369
		c-0.364,0-0.667-0.123-0.905-0.369c-0.239-0.246-0.358-0.551-0.358-0.916v-17.85c0-0.365,0.119-0.671,0.358-0.916
		c0.238-0.246,0.541-0.369,0.905-0.369c0.365,0,0.667,0.123,0.905,0.369c0.238,0.245,0.357,0.551,0.357,0.916v12.627l4.508-4.359
		c0.267-0.266,0.574-0.4,0.926-0.4c0.309,0,0.586,0.131,0.832,0.39c0.246,0.261,0.369,0.523,0.369,0.79
		c0,0.337-0.169,0.652-0.506,0.947l-3.18,2.928l3.686,4.002C226.848,133.175,226.983,133.491,226.983,133.842z"/>
	<path fill="#FFFFFF" d="M238.797,132.505c-0.505,0.893-1.197,1.583-2.075,2.074c-0.877,0.492-1.842,0.738-2.895,0.738
		c-1.066,0-2.036-0.246-2.906-0.738c-0.871-0.491-1.559-1.182-2.064-2.074c-0.505-0.891-0.758-1.898-0.758-3.021
		s0.253-2.131,0.758-3.021c0.506-0.893,1.193-1.588,2.064-2.086c0.87-0.498,1.84-0.748,2.906-0.748c1.053,0,2.018,0.25,2.895,0.748
		c0.878,0.498,1.57,1.193,2.075,2.086c0.505,0.891,0.759,1.898,0.759,3.021S239.302,131.614,238.797,132.505z M236.596,127.641
		c-0.288-0.54-0.675-0.958-1.158-1.253c-0.484-0.295-1.021-0.443-1.611-0.443s-1.127,0.148-1.611,0.443s-0.871,0.713-1.158,1.253
		c-0.288,0.54-0.432,1.155-0.432,1.843s0.144,1.299,0.432,1.832c0.287,0.533,0.674,0.947,1.158,1.242s1.021,0.441,1.611,0.441
		s1.127-0.146,1.611-0.441c0.483-0.295,0.87-0.709,1.158-1.242c0.287-0.533,0.431-1.145,0.431-1.832
		S236.884,128.181,236.596,127.641z"/>
	<rect x="208.626" y="130.062" fill="#FFFFFF" width="0.813" height="1.375"/>
	<g>
		<g>
			<path fill="#FFFFFF" d="M233.395,117.416c-6.05,0-11,0.469-11,1.042c0,0.572,4.542,1.041,10.094,1.041s10.094,4.472,10.094,9.938
				s-4.95,9.938-11,9.938h-36.291c-6.05,0-11-4.472-11-9.938s4.763-9.938,10.583-9.938s10.583-0.469,10.583-1.041
				c0-0.573-4.95-1.042-11-1.042h-1c-6.05,0-11,4.95-11,11v2.083c0,6.05,4.95,11,11,11h40c6.05,0,11-4.95,11-11v-2.083
				c0-6.05-4.95-11-11-11H233.395z"/>
		</g>
	</g>
	<rect x="194.797" y="117.416" fill="#FFFFFF" width="10.661" height="2.083"/>
	<rect x="222.395" y="117.416" fill="#FFFFFF" width="10.105" height="2.083"/>
</g>
<g>
	<path fill="#FFFFFF" d="M174.365,67.104c-0.617,1.09-1.461,1.933-2.531,2.532c-1.072,0.601-2.25,0.9-3.535,0.9
		c-1.303,0-2.485-0.3-3.548-0.9c-1.063-0.6-1.901-1.442-2.518-2.532c-0.618-1.087-0.927-2.317-0.927-3.688s0.309-2.601,0.927-3.688
		c0.616-1.09,1.455-1.938,2.518-2.547c1.063-0.607,2.245-0.913,3.548-0.913c1.285,0,2.463,0.306,3.535,0.913
		c1.07,0.608,1.914,1.457,2.531,2.547c0.618,1.087,0.926,2.316,0.926,3.688S174.983,66.017,174.365,67.104z M171.678,61.166
		c-0.351-0.659-0.822-1.17-1.414-1.529c-0.591-0.36-1.246-0.541-1.966-0.541s-1.375,0.181-1.967,0.541
		c-0.59,0.359-1.062,0.87-1.413,1.529s-0.528,1.41-0.528,2.249c0,0.84,0.177,1.586,0.528,2.236c0.352,0.651,0.823,1.156,1.413,1.517
		c0.592,0.359,1.247,0.538,1.967,0.538s1.375-0.179,1.966-0.538c0.592-0.36,1.063-0.865,1.414-1.517
		c0.351-0.65,0.527-1.396,0.527-2.236C172.206,62.576,172.029,61.825,171.678,61.166z"/>
	<path fill="#FFFFFF" d="M177.67,67.58l4.499-4.885l-3.882-3.574c-0.411-0.359-0.617-0.744-0.617-1.156
		c0-0.325,0.15-0.646,0.449-0.964c0.301-0.316,0.641-0.476,1.016-0.476c0.43,0,0.806,0.164,1.131,0.488l5.502,5.321V46.922
		c0-0.445,0.146-0.818,0.437-1.118c0.292-0.3,0.659-0.45,1.104-0.45c0.446,0,0.815,0.15,1.106,0.45
		c0.292,0.3,0.438,0.673,0.438,1.118V68.71c0,0.446-0.146,0.818-0.438,1.118c-0.291,0.301-0.66,0.451-1.106,0.451
		c-0.445,0-0.813-0.15-1.104-0.451c-0.291-0.3-0.437-0.672-0.437-1.118v-2.698l-1.26-1.157l-4.627,4.883
		c-0.309,0.344-0.686,0.516-1.131,0.516c-0.377,0-0.733-0.146-1.065-0.437c-0.337-0.293-0.503-0.652-0.503-1.081
		C177.181,68.308,177.344,67.921,177.67,67.58z"/>
	<path fill="#FFFFFF" d="M192.437,51.204c-0.239-0.188-0.358-0.523-0.358-1.003v-0.488c0-0.48,0.128-0.814,0.385-1.003
		c0.258-0.188,0.668-0.283,1.234-0.283c0.6,0,1.019,0.096,1.26,0.283c0.238,0.188,0.36,0.522,0.36,1.003v0.488
		c0,0.497-0.126,0.835-0.374,1.015c-0.249,0.18-0.672,0.27-1.272,0.27C193.089,51.485,192.678,51.393,192.437,51.204z
		 M194.802,69.828c-0.291,0.301-0.659,0.451-1.104,0.451s-0.814-0.15-1.105-0.451c-0.292-0.3-0.438-0.672-0.438-1.118V58.094
		c0-0.445,0.146-0.817,0.438-1.118c0.291-0.3,0.66-0.45,1.105-0.45s0.813,0.15,1.104,0.45c0.291,0.301,0.438,0.673,0.438,1.118
		V68.71C195.241,69.156,195.094,69.528,194.802,69.828z"/>
	<path fill="#FFFFFF" d="M209.545,68.735c0,0.429-0.168,0.788-0.503,1.081c-0.334,0.291-0.689,0.437-1.065,0.437
		c-0.446,0-0.823-0.172-1.132-0.516l-4.626-4.883l-1.262,1.157v2.698c0,0.446-0.146,0.818-0.436,1.118
		c-0.291,0.301-0.659,0.451-1.105,0.451c-0.444,0-0.814-0.15-1.104-0.451c-0.292-0.3-0.438-0.672-0.438-1.118V46.922
		c0-0.445,0.146-0.818,0.438-1.118c0.29-0.3,0.66-0.45,1.104-0.45c0.446,0,0.814,0.15,1.105,0.45c0.29,0.3,0.436,0.673,0.436,1.118
		v15.413l5.503-5.321c0.325-0.324,0.701-0.488,1.13-0.488c0.377,0,0.715,0.159,1.016,0.476c0.301,0.318,0.45,0.639,0.45,0.964
		c0,0.412-0.206,0.797-0.617,1.156l-3.881,3.574l4.498,4.885C209.38,67.921,209.545,68.308,209.545,68.735z"/>
	<path fill="#FFFFFF" d="M223.965,67.104c-0.616,1.09-1.462,1.933-2.533,2.532c-1.07,0.601-2.248,0.9-3.533,0.9
		c-1.302,0-2.485-0.3-3.547-0.9c-1.063-0.6-1.903-1.442-2.521-2.532c-0.616-1.087-0.925-2.317-0.925-3.688s0.309-2.601,0.925-3.688
		c0.617-1.09,1.457-1.938,2.521-2.547c1.062-0.607,2.245-0.913,3.547-0.913c1.285,0,2.463,0.306,3.533,0.913
		c1.071,0.608,1.917,1.457,2.533,2.547c0.616,1.087,0.926,2.316,0.926,3.688S224.581,66.017,223.965,67.104z M221.279,61.166
		c-0.352-0.659-0.824-1.17-1.414-1.529c-0.591-0.36-1.247-0.541-1.967-0.541s-1.375,0.181-1.967,0.541
		c-0.591,0.359-1.063,0.87-1.414,1.529c-0.352,0.659-0.526,1.41-0.526,2.249c0,0.84,0.175,1.586,0.526,2.236
		c0.351,0.651,0.823,1.156,1.414,1.517c0.592,0.359,1.247,0.538,1.967,0.538s1.376-0.179,1.967-0.538
		c0.59-0.36,1.063-0.865,1.414-1.517c0.351-0.65,0.525-1.396,0.525-2.236C221.804,62.576,221.63,61.825,221.279,61.166z"/>
	<rect x="187.136" y="64.121" fill="#FFFFFF" width="0.992" height="1.678"/>
	<g>
		<g>
			<path fill="#FFFFFF" d="M214.944,48.686c-6.05,0-11,0.572-11,1.271c0,0.699,4.95,1.271,11,1.271h2.642c6.05,0,11,4.95,11,11
				v2.261c0,6.05-4.95,11-11,11h-49.152c-6.05,0-11-4.95-11-11v-2.261c0-6.05,4.95-11,11-11h3.837c6.05,0,11-0.572,11-1.271
				c0-0.698-4.95-1.271-11-1.271h-6.075c-6.05,0-11,4.95-11,11v7.396c0,6.05,4.95,11,11,11h53.68c6.05,0,11-4.95,11-11v-7.396
				c0-6.05-4.95-11-11-11H214.944z"/>
		</g>
	</g>
	<rect x="170.257" y="48.686" fill="#FFFFFF" width="13.014" height="2.542"/>
	<rect x="203.944" y="48.686" fill="#FFFFFF" width="12.335" height="2.542"/>
</g>
<g>
	<path d="M48.75,103.687c0,1.065-0.9,1.938-2,1.938h-19c-1.1,0-2-0.872-2-1.938s0.9-1.938,2-1.938h19
		C47.85,101.749,48.75,102.621,48.75,103.687z"/>
</g>
<g>
	<path d="M42.75,109.499c0,0.963-0.9,1.75-2,1.75H24.5c-1.1,0-2-0.787-2-1.75s0.9-1.75,2-1.75h16.25
		C41.85,107.749,42.75,108.536,42.75,109.499z"/>
</g>
<g>
	<path d="M94.557,103.274c0.632,0.633,0.513,1.786-0.265,2.563l-0.781,0.781c-0.778,0.777-1.931,0.897-2.563,0.265
		c-0.632-0.632-0.513-1.785,0.265-2.563l0.781-0.781C92.772,102.763,93.926,102.643,94.557,103.274z"/>
</g>
<g>
	<path d="M79.635,118.198c0.632,0.632,0.513,1.785-0.265,2.563l-0.781,0.781c-0.778,0.777-1.931,0.897-2.563,0.266
		c-0.632-0.633-0.513-1.786,0.265-2.563l0.781-0.781C77.849,117.686,79.003,117.565,79.635,118.198z"/>
</g>
<g>
	<path d="M85.291,99.438c0.894,0,1.625,0.9,1.625,2v1.104c0,1.1-0.731,2-1.625,2s-1.625-0.9-1.625-2v-1.104
		C83.666,100.338,84.398,99.438,85.291,99.438z"/>
</g>
<g>
	<path d="M85.291,120.542c0.894,0,1.625,0.9,1.625,2v1.104c0,1.1-0.731,2-1.625,2c-0.894,0.001-1.625-0.899-1.625-1.999v-1.104
		C83.666,121.442,84.398,120.542,85.291,120.542z"/>
</g>
<g>
	<path d="M76.026,103.276c0.632-0.633,1.785-0.513,2.563,0.265l0.781,0.781c0.778,0.777,0.897,1.931,0.265,2.563
		c-0.632,0.632-1.785,0.512-2.563-0.266l-0.781-0.781C75.513,105.062,75.394,103.908,76.026,103.276z"/>
</g>
<g>
	<path d="M90.948,118.198c0.632-0.632,1.785-0.512,2.563,0.266l0.781,0.781c0.778,0.777,0.897,1.931,0.265,2.563
		c-0.632,0.633-1.785,0.513-2.563-0.265l-0.781-0.781C90.436,119.984,90.317,118.831,90.948,118.198z"/>
</g>
<g>
	<path d="M72.187,112.543c0-0.894,0.9-1.625,2-1.625h1.104c1.1,0,2,0.731,2,1.625s-0.9,1.625-2,1.625h-1.104
		C73.087,114.168,72.187,113.437,72.187,112.543z"/>
</g>
<g>
	<path d="M93.291,112.543c0-0.894,0.9-1.625,2-1.625h1.104c1.1,0,2,0.731,2,1.625s-0.9,1.625-2,1.625h-1.104
		C94.191,114.168,93.291,113.437,93.291,112.543z"/>
</g>
<g>
	<g>
		<path fill="#FFFFFF" d="M25.183,54.751c0.632,0.632,0.513,1.785-0.265,2.563l-0.781,0.781c-0.778,0.777-1.931,0.897-2.563,0.266
			c-0.632-0.633-0.513-1.786,0.265-2.563l0.781-0.781C23.398,54.238,24.551,54.118,25.183,54.751z"/>
	</g>
	<g>
		<path fill="#FFFFFF" d="M10.26,69.673c0.632,0.633,0.513,1.786-0.265,2.563l-0.781,0.781c-0.778,0.777-1.931,0.897-2.563,0.265
			c-0.632-0.632-0.513-1.785,0.265-2.563l0.781-0.781C8.475,69.161,9.628,69.041,10.26,69.673z"/>
	</g>
	<g>
		<path fill="#FFFFFF" d="M15.917,50.913c0.894,0,1.625,0.9,1.625,2v1.104c0,1.1-0.731,2-1.625,2s-1.625-0.9-1.625-2v-1.104
			C14.292,51.813,15.023,50.913,15.917,50.913z"/>
	</g>
	<g>
		<path fill="#FFFFFF" d="M15.917,72.018c0.894,0,1.625,0.9,1.625,2v1.104c0,1.1-0.731,2-1.625,2.001c-0.894,0-1.625-0.9-1.625-2
			v-1.104C14.292,72.918,15.023,72.018,15.917,72.018z"/>
	</g>
	<g>
		<path fill="#FFFFFF" d="M6.651,54.751c0.632-0.632,1.785-0.512,2.563,0.266l0.781,0.781c0.778,0.777,0.897,1.931,0.265,2.563
			c-0.632,0.633-1.785,0.513-2.563-0.265l-0.781-0.781C6.138,56.537,6.019,55.384,6.651,54.751z"/>
	</g>
	<g>
		<path fill="#FFFFFF" d="M21.574,69.675c0.632-0.633,1.785-0.513,2.563,0.265l0.781,0.781c0.778,0.777,0.897,1.931,0.265,2.563
			c-0.632,0.632-1.785,0.512-2.563-0.266l-0.781-0.781C21.061,71.46,20.942,70.307,21.574,69.675z"/>
	</g>
	<g>
		<path fill="#FFFFFF" d="M2.812,64.019c0-0.894,0.9-1.625,2-1.625h1.104c1.1,0,2,0.731,2,1.625s-0.9,1.625-2,1.625H4.812
			C3.712,65.644,2.812,64.912,2.812,64.019z"/>
	</g>
	<g>
		<path fill="#FFFFFF" d="M23.917,64.019c0-0.894,0.9-1.625,2-1.625h1.104c1.1,0,2,0.731,2,1.625s-0.9,1.625-2,1.625h-1.104
			C24.817,65.644,23.917,64.912,23.917,64.019z"/>
	</g>
</g>
<g>
	<linearGradient id="SVGID_1_" gradientUnits="userSpaceOnUse" x1="285.5935" y1="160.5635" x2="308.2211" y2="137.9359">
		<stop  offset="0" style="stop-color:#AA5D99"/>
		<stop  offset="0.1382" style="stop-color:#9469A3"/>
		<stop  offset="0.3679" style="stop-color:#757AB1"/>
		<stop  offset="0.5921" style="stop-color:#5F86BB"/>
		<stop  offset="0.8064" style="stop-color:#528EC1"/>
		<stop  offset="1" style="stop-color:#4D90C3"/>
	</linearGradient>
	<circle fill="url(#SVGID_1_)" cx="296.907" cy="149.249" r="16"/>
	<path fill="#FFFFFF" d="M305.041,154.21c-0.828,1.461-1.959,2.593-3.395,3.395c-1.437,0.806-3.016,1.208-4.738,1.208
		c-1.747,0-3.332-0.402-4.758-1.208c-1.424-0.802-2.549-1.934-3.375-3.395c-0.828-1.457-1.242-3.106-1.242-4.944
		s0.414-3.487,1.242-4.944c0.826-1.461,1.951-2.599,3.375-3.414c1.426-0.814,3.011-1.224,4.758-1.224
		c1.723,0,3.302,0.409,4.738,1.224c1.436,0.815,2.566,1.953,3.395,3.414c0.828,1.457,1.24,3.106,1.24,4.944
		S305.869,152.753,305.041,154.21z M301.439,146.252c-0.471-0.886-1.104-1.57-1.896-2.053c-0.793-0.482-1.672-0.725-2.636-0.725
		c-0.965,0-1.844,0.242-2.637,0.725c-0.791,0.482-1.424,1.167-1.896,2.053c-0.472,0.882-0.708,1.889-0.708,3.014
		s0.236,2.126,0.708,2.998c0.472,0.873,1.104,1.551,1.896,2.033c0.793,0.482,1.672,0.722,2.637,0.722
		c0.964,0,1.843-0.239,2.636-0.722c0.792-0.482,1.425-1.16,1.896-2.033c0.469-0.872,0.706-1.873,0.706-2.998
		S301.908,147.134,301.439,146.252z"/>
</g>
<g>
	<linearGradient id="SVGID_2_" gradientUnits="userSpaceOnUse" x1="779.9373" y1="-24.6826" x2="1141.9773" y2="-386.7227">
		<stop  offset="0" style="stop-color:#AA5D99"/>
		<stop  offset="0.1382" style="stop-color:#9469A3"/>
		<stop  offset="0.3679" style="stop-color:#757AB1"/>
		<stop  offset="0.5921" style="stop-color:#5F86BB"/>
		<stop  offset="0.8064" style="stop-color:#528EC1"/>
		<stop  offset="1" style="stop-color:#4D90C3"/>
	</linearGradient>
	<path fill="url(#SVGID_2_)" d="M1216.957-205.692c0,141.375-114.609,255.984-256,255.984s-256-114.609-256-255.984
		c0-141.391,114.609-256.016,256-256.016S1216.957-347.083,1216.957-205.692z"/>
	<path fill="#FFFFFF" d="M1091.097-126.317c-13.25,23.375-31.344,41.484-54.313,54.313c-22.984,12.891-48.25,19.328-75.813,19.328
		c-27.953,0-53.313-6.438-76.125-19.328c-22.781-12.828-40.781-30.938-54-54.313c-13.25-23.313-19.875-49.703-19.875-79.109
		s6.625-55.797,19.875-79.109c13.219-23.375,31.219-41.578,54-54.625c22.813-13.031,48.172-19.578,76.125-19.578
		c27.563,0,52.828,6.547,75.813,19.578c22.969,13.047,41.063,31.25,54.313,54.625c13.25,23.313,19.844,49.703,19.844,79.109
		S1104.347-149.63,1091.097-126.317z M1033.472-253.646c-7.531-14.172-17.656-25.125-30.328-32.844
		c-12.688-7.719-26.75-11.594-42.172-11.594c-15.438,0-29.5,3.875-42.188,11.594c-12.656,7.719-22.781,18.672-30.328,32.844
		c-7.547,14.109-11.328,30.219-11.328,48.219s3.781,34.016,11.328,47.969c7.547,13.969,17.672,24.813,30.328,32.531
		c12.688,7.719,26.75,11.547,42.188,11.547c15.422,0,29.484-3.828,42.172-11.547c12.672-7.719,22.797-18.563,30.328-32.531
		c7.5-13.953,11.297-29.969,11.297-47.969S1040.972-239.536,1033.472-253.646z"/>
</g>
<g>
	<linearGradient id="SVGID_3_" gradientUnits="userSpaceOnUse" x1="1356.5623" y1="2.6274" x2="1492.3274" y2="-133.1378">
		<stop  offset="0" style="stop-color:#AA5D99"/>
		<stop  offset="0.1382" style="stop-color:#9469A3"/>
		<stop  offset="0.3679" style="stop-color:#757AB1"/>
		<stop  offset="0.5921" style="stop-color:#5F86BB"/>
		<stop  offset="0.8064" style="stop-color:#528EC1"/>
		<stop  offset="1" style="stop-color:#4D90C3"/>
	</linearGradient>
	<path fill="url(#SVGID_3_)" d="M1520.445-65.251c0,53.016-42.979,95.994-96,95.994s-96-42.979-96-95.994
		c0-53.021,42.979-96.006,96-96.006S1520.445-118.272,1520.445-65.251z"/>
	<path fill="#FFFFFF" d="M1473.248-35.485c-4.969,8.766-11.754,15.557-20.367,20.367c-8.619,4.834-18.094,7.248-28.43,7.248
		c-10.482,0-19.992-2.414-28.547-7.248c-8.543-4.811-15.293-11.602-20.25-20.367c-4.969-8.742-7.453-18.639-7.453-29.666
		s2.484-20.924,7.453-29.666c4.957-8.766,11.707-15.592,20.25-20.484c8.555-4.887,18.064-7.342,28.547-7.342
		c10.336,0,19.811,2.455,28.43,7.342c8.613,4.893,15.398,11.719,20.367,20.484c4.969,8.742,7.441,18.639,7.441,29.666
		S1478.217-44.228,1473.248-35.485z M1451.638-83.233c-2.824-5.314-6.621-9.422-11.373-12.316
		c-4.758-2.895-10.031-4.348-15.814-4.348c-5.789,0-11.063,1.453-15.82,4.348c-4.746,2.895-8.543,7.002-11.373,12.316
		c-2.83,5.291-4.248,11.332-4.248,18.082s1.418,12.756,4.248,17.988c2.83,5.238,6.627,9.305,11.373,12.199
		c4.758,2.895,10.031,4.33,15.82,4.33c5.783,0,11.057-1.436,15.814-4.33c4.752-2.895,8.549-6.961,11.373-12.199
		c2.813-5.232,4.236-11.238,4.236-17.988S1454.451-77.942,1451.638-83.233z"/>
</g>
<g>
	<linearGradient id="SVGID_4_" gradientUnits="userSpaceOnUse" x1="1650.533" y1="11.7178" x2="1752.3566" y2="-90.1059">
		<stop  offset="0" style="stop-color:#AA5D99"/>
		<stop  offset="0.1382" style="stop-color:#9469A3"/>
		<stop  offset="0.3679" style="stop-color:#757AB1"/>
		<stop  offset="0.5921" style="stop-color:#5F86BB"/>
		<stop  offset="0.8064" style="stop-color:#528EC1"/>
		<stop  offset="1" style="stop-color:#4D90C3"/>
	</linearGradient>
	<path fill="url(#SVGID_4_)" d="M1773.445-39.191c0,39.762-32.234,71.996-72,71.996s-72-32.234-72-71.996
		c0-39.766,32.234-72.004,72-72.004S1773.445-78.957,1773.445-39.191z"/>
	<path fill="#FFFFFF" d="M1738.047-16.867c-3.727,6.574-8.814,11.667-15.275,15.275c-6.464,3.625-13.57,5.436-21.322,5.436
		c-7.861,0-14.994-1.811-21.41-5.436c-6.406-3.608-11.469-8.701-15.188-15.275c-3.727-6.557-5.59-13.979-5.59-22.25
		s1.863-15.693,5.59-22.25c3.719-6.574,8.781-11.694,15.188-15.363c6.416-3.665,13.549-5.506,21.41-5.506
		c7.752,0,14.858,1.841,21.322,5.506c6.461,3.669,11.549,8.789,15.275,15.363c3.727,6.557,5.582,13.979,5.582,22.25
		S1741.773-23.423,1738.047-16.867z M1721.84-52.678c-2.117-3.986-4.965-7.066-8.529-9.237c-3.568-2.171-7.523-3.261-11.861-3.261
		c-4.342,0-8.297,1.09-11.865,3.261c-3.559,2.171-6.406,5.251-8.529,9.237c-2.123,3.968-3.186,8.499-3.186,13.562
		s1.063,9.567,3.186,13.491c2.123,3.929,4.971,6.979,8.529,9.149c3.568,2.171,7.523,3.248,11.865,3.248
		c4.338,0,8.293-1.077,11.861-3.248c3.564-2.171,6.412-5.221,8.529-9.149c2.109-3.924,3.178-8.429,3.178-13.491
		S1723.949-48.709,1721.84-52.678z"/>
</g>
<g>
	<linearGradient id="SVGID_5_" gradientUnits="userSpaceOnUse" x1="1866.9851" y1="65.2676" x2="2057.9045" y2="-125.6519">
		<stop  offset="0" style="stop-color:#AA5D99"/>
		<stop  offset="0.1382" style="stop-color:#9469A3"/>
		<stop  offset="0.3679" style="stop-color:#757AB1"/>
		<stop  offset="0.5921" style="stop-color:#5F86BB"/>
		<stop  offset="0.8064" style="stop-color:#528EC1"/>
		<stop  offset="1" style="stop-color:#4D90C3"/>
	</linearGradient>
	<path fill="url(#SVGID_5_)" d="M2097.445-30.187c0,74.553-60.439,134.992-135,134.992s-135-60.438-135-134.992
		c0-74.562,60.439-135.008,135-135.008S2097.445-104.749,2097.445-30.187z"/>
	<path fill="#FFFFFF" d="M2031.073,11.671c-6.987,12.327-16.527,21.876-28.642,28.642c-12.119,6.798-25.444,10.192-39.979,10.192
		c-14.74,0-28.114-3.395-40.145-10.192c-12.012-6.765-21.504-16.315-28.477-28.642c-6.987-12.294-10.48-26.211-10.48-41.718
		c0-15.507,3.493-29.424,10.48-41.718c6.973-12.327,16.465-21.926,28.477-28.806c12.03-6.872,25.404-10.325,40.145-10.325
		c14.534,0,27.859,3.453,39.979,10.325c12.114,6.88,21.654,16.479,28.642,28.806c6.987,12.293,10.466,26.21,10.466,41.718
		C2041.539-14.54,2038.06-0.623,2031.073,11.671z M2000.685-55.475c-3.971-7.474-9.31-13.25-15.993-17.32
		c-6.69-4.07-14.106-6.114-22.239-6.114c-8.142,0-15.557,2.043-22.248,6.114c-6.672,4.07-12.012,9.847-15.992,17.32
		c-3.98,7.44-5.973,15.936-5.973,25.428s1.992,17.938,5.973,25.296c3.98,7.366,9.32,13.085,15.992,17.155
		c6.691,4.07,14.106,6.089,22.248,6.089c8.133,0,15.549-2.019,22.239-6.089c6.684-4.07,12.022-9.789,15.993-17.155
		c3.955-7.358,5.958-15.804,5.958-25.296S2004.64-48.034,2000.685-55.475z"/>
</g>
<g>
	<linearGradient id="SVGID_6_" gradientUnits="userSpaceOnUse" x1="391.4236" y1="162.9053" x2="402.7372" y2="151.5916">
		<stop  offset="0" style="stop-color:#AA5D99"/>
		<stop  offset="0.1382" style="stop-color:#9469A3"/>
		<stop  offset="0.3679" style="stop-color:#757AB1"/>
		<stop  offset="0.5921" style="stop-color:#5F86BB"/>
		<stop  offset="0.8064" style="stop-color:#528EC1"/>
		<stop  offset="1" style="stop-color:#4D90C3"/>
	</linearGradient>
	<circle fill="url(#SVGID_6_)" cx="397.08" cy="157.249" r="8"/>
	<path fill="#FFFFFF" d="M401.146,159.729c-0.414,0.73-0.979,1.296-1.697,1.697c-0.718,0.402-1.508,0.604-2.369,0.604
		c-0.873,0-1.666-0.201-2.379-0.604c-0.711-0.401-1.273-0.967-1.688-1.697c-0.414-0.729-0.621-1.554-0.621-2.473
		s0.207-1.744,0.621-2.473c0.414-0.73,0.977-1.299,1.688-1.707c0.713-0.406,1.506-0.611,2.379-0.611
		c0.861,0,1.651,0.205,2.369,0.611c0.719,0.408,1.283,0.977,1.697,1.707c0.414,0.729,0.621,1.554,0.621,2.473
		S401.56,159.001,401.146,159.729z M399.345,155.75c-0.234-0.442-0.551-0.785-0.947-1.026s-0.836-0.362-1.318-0.362
		s-0.922,0.121-1.318,0.362c-0.395,0.241-0.711,0.584-0.947,1.026c-0.236,0.44-0.354,0.944-0.354,1.507s0.117,1.063,0.354,1.499
		s0.553,0.775,0.947,1.017c0.396,0.241,0.836,0.361,1.318,0.361s0.922-0.12,1.318-0.361s0.713-0.58,0.947-1.017
		s0.354-0.937,0.354-1.499S399.58,156.19,399.345,155.75z"/>
</g>
<g>
	<path fill="#FFFFFF" d="M371.58,19.738c0,1.65-1.35,3-3,3h-0.883c-1.65,0-3-1.35-3-3V-4.429c0-1.65,1.35-3,3-3h0.883
		c1.65,0,3,1.35,3,3V19.738z"/>
</g>
<g>
	<path fill="#FFFFFF" d="M378.347,11.262c1.65,0,3,1.35,3,3v0.884c0,1.65-1.35,3-3,3h-24.168c-1.65,0-3-1.35-3-3v-0.884
		c0-1.65,1.35-3,3-3H378.347z"/>
</g>
<circle fill="#A92B34" stroke="#FFFFFF" stroke-width="2" stroke-miterlimit="10" cx="253.096" cy="29.237" r="13.542"/>
<path fill="none" stroke="#FFFFFF" stroke-width="2" stroke-miterlimit="10" d="M285.138,15.696c-7.704,0-14.957,1.918-21.32,5.292
	c1.761,2.286,2.819,5.14,2.819,8.249c0,7.478-6.063,13.541-13.541,13.541c-3.108,0-5.964-1.059-8.249-2.819
	c-3.374,6.363-5.293,13.616-5.293,21.32c0,25.175,20.407,45.583,45.584,45.583c25.176,0,45.584-20.408,45.584-45.583
	S310.314,15.696,285.138,15.696z"/>
<g>
	<path fill="#FFFFFF" d="M269.388,49.382c0,0.243-0.079,0.441-0.237,0.596c-0.159,0.154-0.341,0.23-0.546,0.23
		c-0.169,0-0.32-0.051-0.455-0.154c-0.136-0.102-0.241-0.242-0.315-0.42l-0.728-1.693h-4.173l-0.728,1.707
		c-0.065,0.178-0.166,0.316-0.301,0.414c-0.136,0.098-0.282,0.146-0.441,0.146c-0.242,0-0.427-0.065-0.553-0.195
		c-0.126-0.131-0.189-0.309-0.189-0.533c0-0.084,0.015-0.172,0.042-0.266l3.486-8.371c0.074-0.188,0.187-0.332,0.336-0.435
		s0.317-0.145,0.504-0.126c0.168,0,0.324,0.049,0.469,0.146c0.146,0.099,0.25,0.236,0.315,0.414l3.444,8.203
		C269.365,49.167,269.388,49.28,269.388,49.382z M263.621,46.33h2.8l-1.414-3.276L263.621,46.33z"/>
	<path fill="#FFFFFF" d="M269.473,52.658c-0.149-0.149-0.225-0.336-0.225-0.56v-0.154c0-0.373,0.238-0.631,0.714-0.77
		c0.299-0.094,0.488-0.25,0.567-0.47s0.119-0.524,0.119-0.917v-6.286c0-0.242,0.079-0.445,0.238-0.608
		c0.158-0.164,0.358-0.246,0.602-0.246c0.242,0,0.443,0.082,0.602,0.246c0.159,0.163,0.238,0.366,0.238,0.608v6.776
		c0,0.522-0.101,0.98-0.301,1.372c-0.201,0.392-0.476,0.694-0.826,0.909c-0.35,0.215-0.739,0.322-1.169,0.322
		C269.809,52.882,269.622,52.808,269.473,52.658z M270.789,41.584c-0.131-0.103-0.195-0.284-0.195-0.546v-0.266
		c0-0.262,0.069-0.443,0.21-0.547c0.14-0.102,0.363-0.153,0.672-0.153c0.326,0,0.555,0.052,0.686,0.153
		c0.131,0.104,0.196,0.285,0.196,0.547v0.266c0,0.271-0.068,0.455-0.203,0.553c-0.136,0.098-0.366,0.147-0.693,0.147
		C271.143,41.738,270.92,41.687,270.789,41.584z"/>
	<path fill="#FFFFFF" d="M280.98,48.409c-0.336,0.593-0.795,1.053-1.379,1.379c-0.583,0.327-1.225,0.49-1.925,0.49
		c-0.709,0-1.354-0.163-1.932-0.49c-0.579-0.326-1.036-0.786-1.372-1.379s-0.504-1.262-0.504-2.009s0.168-1.417,0.504-2.009
		c0.336-0.593,0.793-1.055,1.372-1.387c0.578-0.331,1.223-0.496,1.932-0.496c0.7,0,1.342,0.165,1.925,0.496
		c0.584,0.332,1.043,0.794,1.379,1.387c0.337,0.592,0.505,1.262,0.505,2.009S281.317,47.816,280.98,48.409z M279.517,45.175
		c-0.191-0.359-0.447-0.637-0.77-0.832c-0.322-0.197-0.679-0.295-1.071-0.295c-0.392,0-0.749,0.098-1.071,0.295
		c-0.321,0.195-0.578,0.473-0.77,0.832s-0.287,0.768-0.287,1.226c0,0.457,0.096,0.863,0.287,1.218
		c0.191,0.355,0.448,0.63,0.77,0.826c0.322,0.195,0.68,0.294,1.071,0.294c0.393,0,0.749-0.099,1.071-0.294
		c0.322-0.196,0.578-0.471,0.77-0.826c0.191-0.354,0.287-0.761,0.287-1.218C279.804,45.942,279.709,45.534,279.517,45.175z"/>
	<path fill="#FFFFFF" d="M289.045,42.894c0.158,0.163,0.237,0.366,0.237,0.608v3.556c0,1.009-0.277,1.797-0.833,2.367
		c-0.555,0.568-1.346,0.854-2.373,0.854c-1.026,0-1.815-0.285-2.365-0.854c-0.551-0.57-0.826-1.358-0.826-2.367v-3.556
		c0-0.242,0.079-0.445,0.238-0.608c0.158-0.164,0.358-0.246,0.602-0.246c0.242,0,0.443,0.082,0.602,0.246
		c0.159,0.163,0.238,0.366,0.238,0.608v3.556c0,0.57,0.126,0.992,0.378,1.268s0.63,0.413,1.134,0.413
		c0.514,0,0.896-0.138,1.148-0.413s0.378-0.697,0.378-1.268v-3.556c0-0.242,0.079-0.445,0.238-0.608
		c0.158-0.164,0.359-0.246,0.602-0.246C288.685,42.647,288.885,42.729,289.045,42.894z"/>
	<path fill="#FFFFFF" d="M295.071,48.745c0.107,0.126,0.161,0.292,0.161,0.497c0,0.252-0.138,0.464-0.413,0.638
		c-0.275,0.172-0.586,0.258-0.931,0.258c-0.579,0-1.066-0.123-1.463-0.371c-0.397-0.246-0.596-0.771-0.596-1.574v-3.864h-0.644
		c-0.225,0-0.411-0.075-0.561-0.224c-0.149-0.149-0.224-0.336-0.224-0.561c0-0.215,0.074-0.395,0.224-0.539s0.336-0.217,0.561-0.217
		h0.644v-0.896c0-0.242,0.082-0.445,0.245-0.608s0.366-0.245,0.609-0.245c0.233,0,0.429,0.082,0.588,0.245
		c0.158,0.163,0.238,0.366,0.238,0.608v0.896h0.993c0.225,0,0.411,0.074,0.561,0.225c0.149,0.148,0.224,0.336,0.224,0.56
		c0,0.215-0.074,0.395-0.224,0.539s-0.336,0.217-0.561,0.217h-0.993v3.794c0,0.196,0.051,0.338,0.153,0.428
		c0.103,0.088,0.243,0.133,0.42,0.133c0.075,0,0.178-0.02,0.309-0.057c0.111-0.047,0.219-0.07,0.322-0.07
		C294.844,48.556,294.964,48.619,295.071,48.745z"/>
	<path fill="#FFFFFF" d="M303.212,46.765c-0.168,0.14-0.364,0.209-0.588,0.209h-4.62c0.111,0.551,0.368,0.982,0.77,1.295
		c0.401,0.313,0.854,0.47,1.358,0.47c0.383,0,0.681-0.035,0.896-0.104c0.215-0.07,0.386-0.145,0.512-0.225
		c0.126-0.079,0.212-0.133,0.259-0.161c0.168-0.084,0.326-0.126,0.476-0.126c0.196,0,0.364,0.07,0.504,0.21
		c0.141,0.14,0.21,0.304,0.21,0.49c0,0.252-0.131,0.481-0.392,0.687c-0.262,0.215-0.611,0.396-1.05,0.545
		c-0.439,0.15-0.882,0.225-1.33,0.225c-0.784,0-1.468-0.163-2.051-0.49c-0.584-0.326-1.034-0.777-1.352-1.352
		c-0.317-0.573-0.476-1.22-0.476-1.938c0-0.802,0.168-1.507,0.504-2.114c0.336-0.605,0.779-1.07,1.33-1.393s1.139-0.482,1.764-0.482
		c0.616,0,1.197,0.168,1.743,0.504s0.982,0.788,1.309,1.357c0.327,0.569,0.49,1.186,0.49,1.848
		C303.468,46.442,303.38,46.624,303.212,46.765z M298.017,45.574h3.668v-0.099c-0.037-0.392-0.229-0.728-0.574-1.008
		c-0.345-0.279-0.737-0.42-1.176-0.42C298.852,44.048,298.214,44.558,298.017,45.574z"/>
	<path fill="#FFFFFF" d="M309.476,42.746c0.191,0.159,0.287,0.346,0.287,0.56c0,0.29-0.075,0.507-0.224,0.651
		c-0.149,0.146-0.327,0.218-0.532,0.218c-0.14,0-0.299-0.033-0.476-0.099c-0.028-0.009-0.092-0.028-0.189-0.056
		c-0.098-0.028-0.203-0.043-0.315-0.043c-0.242,0-0.476,0.076-0.699,0.225c-0.225,0.149-0.409,0.376-0.554,0.68
		c-0.145,0.303-0.217,0.664-0.217,1.084v3.318c0,0.242-0.079,0.445-0.238,0.609c-0.158,0.163-0.359,0.244-0.602,0.244
		c-0.243,0-0.443-0.081-0.602-0.244c-0.159-0.164-0.238-0.367-0.238-0.609v-5.782c0-0.242,0.079-0.445,0.238-0.608
		c0.158-0.164,0.358-0.246,0.602-0.246c0.242,0,0.443,0.082,0.602,0.246c0.159,0.163,0.238,0.366,0.238,0.608v0.183
		c0.215-0.383,0.522-0.675,0.924-0.875c0.401-0.201,0.831-0.301,1.288-0.301C309.05,42.509,309.285,42.587,309.476,42.746z"/>
	<path fill="#FFFFFF" d="M280.043,59.692c0.158,0.164,0.237,0.367,0.237,0.609v3.557c0,1.008-0.277,1.797-0.833,2.365
		c-0.555,0.57-1.346,0.854-2.373,0.854c-1.026,0-1.815-0.284-2.365-0.854c-0.551-0.568-0.826-1.357-0.826-2.365v-3.557
		c0-0.242,0.079-0.445,0.238-0.609c0.158-0.162,0.358-0.244,0.602-0.244c0.242,0,0.443,0.082,0.602,0.244
		c0.159,0.164,0.238,0.367,0.238,0.609v3.557c0,0.568,0.126,0.991,0.378,1.267s0.63,0.413,1.134,0.413
		c0.514,0,0.896-0.138,1.148-0.413s0.378-0.698,0.378-1.267v-3.557c0-0.242,0.079-0.445,0.238-0.609
		c0.158-0.162,0.359-0.244,0.602-0.244C279.683,59.448,279.884,59.53,280.043,59.692z"/>
	<path fill="#FFFFFF" d="M288.078,60.155c0.364,0.564,0.546,1.346,0.546,2.345v3.584c0,0.243-0.079,0.446-0.237,0.608
		c-0.159,0.164-0.359,0.246-0.603,0.246c-0.242,0-0.443-0.082-0.602-0.246c-0.159-0.162-0.238-0.365-0.238-0.608V62.5
		c0-0.513-0.107-0.917-0.322-1.211s-0.583-0.44-1.105-0.44c-0.542,0-0.966,0.156-1.274,0.469c-0.308,0.313-0.462,0.707-0.462,1.183
		v3.584c0,0.243-0.079,0.446-0.238,0.608c-0.158,0.164-0.359,0.246-0.602,0.246c-0.243,0-0.443-0.082-0.602-0.246
		c-0.159-0.162-0.238-0.365-0.238-0.608v-5.782c0-0.242,0.079-0.445,0.238-0.609c0.158-0.162,0.358-0.244,0.602-0.244
		c0.242,0,0.443,0.082,0.602,0.244c0.159,0.164,0.238,0.367,0.238,0.609v0.238c0.252-0.336,0.581-0.625,0.987-0.868
		s0.852-0.364,1.337-0.364C287.056,59.308,287.715,59.591,288.078,60.155z"/>
	<path fill="#FFFFFF" d="M296.898,63.563c-0.168,0.141-0.364,0.211-0.588,0.211h-4.62c0.111,0.551,0.368,0.982,0.77,1.295
		s0.854,0.469,1.358,0.469c0.383,0,0.681-0.035,0.896-0.105s0.386-0.145,0.512-0.224s0.212-0.133,0.259-0.161
		c0.168-0.084,0.326-0.126,0.476-0.126c0.196,0,0.364,0.07,0.504,0.21c0.141,0.141,0.21,0.304,0.21,0.49
		c0,0.252-0.131,0.48-0.392,0.686c-0.262,0.215-0.611,0.396-1.05,0.547c-0.439,0.148-0.882,0.224-1.33,0.224
		c-0.784,0-1.468-0.163-2.051-0.49c-0.584-0.327-1.034-0.776-1.352-1.351s-0.476-1.221-0.476-1.939c0-0.803,0.168-1.507,0.504-2.113
		c0.336-0.607,0.779-1.072,1.33-1.394c0.551-0.322,1.139-0.483,1.764-0.483c0.616,0,1.197,0.168,1.743,0.504
		s0.982,0.789,1.309,1.358c0.327,0.569,0.49,1.186,0.49,1.849C297.154,63.242,297.066,63.424,296.898,63.563z M291.704,62.374h3.668
		v-0.098c-0.037-0.393-0.229-0.729-0.574-1.008c-0.345-0.281-0.737-0.42-1.176-0.42C292.539,60.849,291.9,61.356,291.704,62.374z"/>
	<path fill="#FFFFFF" d="M264.048,76.347c0.158,0.158,0.237,0.363,0.237,0.615v5.922c0,0.243-0.079,0.446-0.237,0.609
		c-0.159,0.164-0.359,0.245-0.603,0.245c-0.242,0-0.44-0.079-0.595-0.237c-0.154-0.159-0.235-0.359-0.245-0.603
		c-0.233,0.271-0.548,0.501-0.945,0.692c-0.396,0.191-0.813,0.287-1.253,0.287c-0.644,0-1.227-0.165-1.75-0.496
		c-0.522-0.332-0.936-0.791-1.238-1.379c-0.304-0.589-0.455-1.256-0.455-2.002c0-0.747,0.149-1.417,0.448-2.01
		c0.298-0.592,0.706-1.055,1.225-1.386c0.518-0.331,1.09-0.497,1.715-0.497c0.448,0,0.868,0.082,1.26,0.245
		c0.393,0.163,0.724,0.37,0.994,0.622v-0.014c0-0.242,0.079-0.445,0.238-0.608c0.158-0.163,0.359-0.245,0.602-0.245
		C263.688,76.108,263.888,76.188,264.048,76.347z M262.101,81.673c0.383-0.443,0.574-1,0.574-1.672c0-0.673-0.191-1.232-0.574-1.681
		s-0.877-0.672-1.484-0.672c-0.597,0-1.087,0.224-1.47,0.672s-0.574,1.008-0.574,1.681c0,0.672,0.189,1.229,0.567,1.672
		s0.87,0.666,1.477,0.666C261.224,82.339,261.719,82.116,262.101,81.673z"/>
	<path fill="#FFFFFF" d="M272.083,76.955c0.364,0.565,0.546,1.347,0.546,2.345v3.584c0,0.243-0.079,0.446-0.237,0.609
		c-0.159,0.164-0.359,0.245-0.603,0.245c-0.242,0-0.443-0.081-0.602-0.245c-0.159-0.163-0.238-0.366-0.238-0.609V79.3
		c0-0.513-0.107-0.916-0.322-1.211c-0.215-0.293-0.583-0.44-1.105-0.44c-0.542,0-0.966,0.156-1.274,0.469
		c-0.308,0.313-0.462,0.707-0.462,1.183v3.584c0,0.243-0.079,0.446-0.238,0.609c-0.158,0.164-0.359,0.245-0.602,0.245
		c-0.243,0-0.443-0.081-0.602-0.245c-0.159-0.163-0.238-0.366-0.238-0.609v-5.781c0-0.242,0.079-0.445,0.238-0.609
		c0.158-0.163,0.358-0.245,0.602-0.245c0.242,0,0.443,0.082,0.602,0.245c0.159,0.164,0.238,0.367,0.238,0.609v0.238
		c0.252-0.336,0.581-0.625,0.987-0.869c0.406-0.242,0.852-0.363,1.337-0.363C271.061,76.108,271.719,76.391,272.083,76.955z"/>
	<path fill="#FFFFFF" d="M280.427,76.955c0.364,0.565,0.546,1.347,0.546,2.345v3.584c0,0.243-0.079,0.446-0.237,0.609
		c-0.159,0.164-0.359,0.245-0.603,0.245c-0.242,0-0.443-0.081-0.602-0.245c-0.159-0.163-0.238-0.366-0.238-0.609V79.3
		c0-0.513-0.107-0.916-0.322-1.211c-0.215-0.293-0.583-0.44-1.105-0.44c-0.542,0-0.966,0.156-1.274,0.469
		c-0.308,0.313-0.462,0.707-0.462,1.183v3.584c0,0.243-0.079,0.446-0.238,0.609c-0.158,0.164-0.359,0.245-0.602,0.245
		c-0.243,0-0.443-0.081-0.602-0.245c-0.159-0.163-0.238-0.366-0.238-0.609v-5.781c0-0.242,0.079-0.445,0.238-0.609
		c0.158-0.163,0.358-0.245,0.602-0.245c0.242,0,0.443,0.082,0.602,0.245c0.159,0.164,0.238,0.367,0.238,0.609v0.238
		c0.252-0.336,0.581-0.625,0.987-0.869c0.406-0.242,0.852-0.363,1.337-0.363C279.405,76.108,280.063,76.391,280.427,76.955z"/>
	<path fill="#FFFFFF" d="M289.484,82.009c-0.336,0.594-0.795,1.053-1.379,1.379c-0.583,0.328-1.225,0.49-1.925,0.49
		c-0.709,0-1.354-0.162-1.932-0.49c-0.579-0.326-1.036-0.785-1.372-1.379c-0.336-0.592-0.504-1.262-0.504-2.008
		c0-0.747,0.168-1.417,0.504-2.01c0.336-0.592,0.793-1.055,1.372-1.386c0.578-0.331,1.223-0.497,1.932-0.497
		c0.7,0,1.342,0.166,1.925,0.497c0.584,0.331,1.043,0.794,1.379,1.386c0.337,0.593,0.505,1.263,0.505,2.01
		C289.989,80.747,289.821,81.417,289.484,82.009z M288.021,78.775c-0.191-0.359-0.447-0.638-0.77-0.833
		c-0.322-0.196-0.679-0.294-1.071-0.294c-0.392,0-0.749,0.098-1.071,0.294c-0.321,0.195-0.578,0.474-0.77,0.833
		s-0.287,0.768-0.287,1.226c0,0.457,0.096,0.863,0.287,1.217c0.191,0.355,0.448,0.631,0.77,0.826
		c0.322,0.196,0.68,0.295,1.071,0.295c0.393,0,0.749-0.099,1.071-0.295c0.322-0.195,0.578-0.471,0.77-0.826
		c0.191-0.354,0.287-0.76,0.287-1.217C288.308,79.543,288.213,79.135,288.021,78.775z"/>
	<path fill="#FFFFFF" d="M297.366,76.955c0.364,0.565,0.546,1.347,0.546,2.345v3.584c0,0.243-0.079,0.446-0.237,0.609
		c-0.159,0.164-0.359,0.245-0.603,0.245c-0.242,0-0.443-0.081-0.602-0.245c-0.159-0.163-0.238-0.366-0.238-0.609V79.3
		c0-0.513-0.107-0.916-0.322-1.211c-0.215-0.293-0.583-0.44-1.105-0.44c-0.542,0-0.966,0.156-1.274,0.469
		c-0.308,0.313-0.462,0.707-0.462,1.183v3.584c0,0.243-0.079,0.446-0.238,0.609c-0.158,0.164-0.359,0.245-0.602,0.245
		c-0.243,0-0.443-0.081-0.602-0.245c-0.159-0.163-0.238-0.366-0.238-0.609v-5.781c0-0.242,0.079-0.445,0.238-0.609
		c0.158-0.163,0.358-0.245,0.602-0.245c0.242,0,0.443,0.082,0.602,0.245c0.159,0.164,0.238,0.367,0.238,0.609v0.238
		c0.252-0.336,0.581-0.625,0.987-0.869c0.406-0.242,0.852-0.363,1.337-0.363C296.344,76.108,297.003,76.391,297.366,76.955z"/>
	<path fill="#FFFFFF" d="M304.912,76.479c0.485,0.247,0.729,0.576,0.729,0.986c0,0.206-0.062,0.385-0.183,0.539
		s-0.279,0.231-0.476,0.231c-0.149,0-0.271-0.021-0.364-0.063c-0.094-0.041-0.185-0.098-0.272-0.168
		c-0.089-0.07-0.176-0.128-0.26-0.175c-0.093-0.046-0.23-0.089-0.413-0.126c-0.182-0.037-0.328-0.056-0.44-0.056
		c-0.7,0-1.249,0.217-1.646,0.651c-0.396,0.434-0.595,1-0.595,1.701c0,0.672,0.2,1.229,0.603,1.672
		c0.4,0.443,0.914,0.666,1.539,0.666c0.458,0,0.799-0.057,1.022-0.168c0.056-0.029,0.133-0.078,0.231-0.147
		c0.098-0.07,0.188-0.124,0.272-0.161s0.187-0.057,0.309-0.057c0.232,0,0.417,0.075,0.553,0.225
		c0.135,0.149,0.203,0.341,0.203,0.574c0,0.224-0.131,0.434-0.393,0.63c-0.261,0.196-0.606,0.353-1.036,0.469
		c-0.429,0.116-0.887,0.175-1.372,0.175c-0.719,0-1.351-0.168-1.896-0.504s-0.969-0.8-1.267-1.393
		c-0.299-0.593-0.448-1.253-0.448-1.98c0-0.757,0.156-1.429,0.469-2.017s0.749-1.048,1.309-1.379
		c0.561-0.331,1.195-0.497,1.904-0.497C303.787,76.108,304.427,76.231,304.912,76.479z"/>
	<path fill="#FFFFFF" d="M313.396,80.364c-0.168,0.141-0.364,0.21-0.588,0.21h-4.62c0.111,0.551,0.368,0.982,0.77,1.295
		c0.401,0.313,0.854,0.47,1.358,0.47c0.383,0,0.681-0.035,0.896-0.105s0.386-0.145,0.512-0.225c0.126-0.078,0.212-0.133,0.259-0.16
		c0.168-0.084,0.326-0.127,0.476-0.127c0.196,0,0.364,0.07,0.504,0.211c0.141,0.14,0.21,0.303,0.21,0.49
		c0,0.252-0.131,0.48-0.392,0.686c-0.262,0.215-0.611,0.396-1.05,0.546c-0.439,0.149-0.882,0.224-1.33,0.224
		c-0.784,0-1.468-0.162-2.051-0.49c-0.584-0.326-1.034-0.776-1.352-1.351c-0.317-0.573-0.476-1.22-0.476-1.938
		c0-0.803,0.168-1.508,0.504-2.114s0.779-1.071,1.33-1.394s1.139-0.482,1.764-0.482c0.616,0,1.197,0.168,1.743,0.504
		s0.982,0.789,1.309,1.357c0.327,0.57,0.49,1.186,0.49,1.849C313.652,80.042,313.564,80.224,313.396,80.364z M308.202,79.175h3.668
		v-0.099c-0.037-0.392-0.229-0.728-0.574-1.008c-0.345-0.28-0.737-0.42-1.176-0.42C309.037,77.648,308.398,78.157,308.202,79.175z"
		/>
</g>
<g>
	<path fill-rule="evenodd" clip-rule="evenodd" fill="#FFFFFF" d="M135.306,52.286c-0.001,0.04-0.003,0.08-0.003,0.12
		c0,3.294,0,6.588,0,9.881c0,0.043,0,0.086,0,0.135c-3.386,0-6.761,0-10.146,0c0-0.049,0-0.092,0-0.135c0-3.291,0-6.581,0-9.872
		c0-0.043-0.002-0.086-0.004-0.129C128.538,52.286,131.922,52.286,135.306,52.286z M133.042,54.544c-1.877,0-3.747,0-5.621,0
		c0,1.877,0,3.749,0,5.624c1.877,0,3.747,0,5.621,0C133.042,58.29,133.042,56.418,133.042,54.544z"/>
	<path fill-rule="evenodd" clip-rule="evenodd" fill="#FFFFFF" d="M106.001,71.438c0.044,0.001,0.087,0.004,0.13,0.004
		c3.291,0,6.581,0,9.872,0c0.042,0,0.085,0,0.134,0c0,3.385,0,6.76,0,10.145c-0.049,0-0.092,0-0.134,0c-3.291,0-6.581,0-9.871,0
		c-0.044,0-0.087,0.002-0.131,0.004C106.001,78.206,106.001,74.822,106.001,71.438z M108.26,79.325c1.876,0,3.749,0,5.622,0
		c0-1.878,0-3.748,0-5.621c-1.876,0-3.746,0-5.622,0C108.26,75.58,108.26,77.45,108.26,79.325z"/>
	<path fill-rule="evenodd" clip-rule="evenodd" fill="#FFFFFF" d="M106.001,62.419c0-3.376,0-6.752,0-10.133
		c3.379,0,6.756,0,10.135,0c0.003,0.03,0.008,0.061,0.008,0.091c0,3.315,0,6.63,0,9.944c0,0.033-0.003,0.065-0.005,0.106
		c-0.047,0-0.083,0-0.12,0c-3.302,0-6.604,0-9.907,0C106.075,62.428,106.038,62.422,106.001,62.419z M113.883,60.168
		c0-1.879,0-3.75,0-5.623c-1.878,0-3.75,0-5.623,0c0,1.878,0,3.748,0,5.623C110.135,60.168,112.006,60.168,113.883,60.168z"/>
	<path fill-rule="evenodd" clip-rule="evenodd" fill="#FFFFFF" d="M120.655,54.537c-0.749,0-1.497,0-2.251,0
		c-0.002-0.028-0.005-0.049-0.005-0.069c-0.001-0.709-0.001-1.418,0-2.127c0-0.019,0.003-0.037,0.005-0.055c0.75,0,1.5,0,2.25,0
		C120.654,53.036,120.655,53.786,120.655,54.537z"/>
	<path fill-rule="evenodd" clip-rule="evenodd" fill="#FFFFFF" d="M106.001,64.688c0.192-0.002,0.384-0.005,0.575-0.005
		c0.555,0,1.108,0,1.677,0c0,0.755,0,1.505,0,2.256c-0.751-0.001-1.501-0.001-2.252-0.002
		C106.001,66.188,106.001,65.438,106.001,64.688z"/>
	<path fill-rule="evenodd" clip-rule="evenodd" fill="#FFFFFF" d="M129.68,79.35c-0.03-0.006-0.06-0.017-0.09-0.017
		c-0.7-0.001-1.4,0-2.101,0c-0.021,0-0.042,0.003-0.075,0.005c0,0.749,0,1.493,0,2.244c-0.757,0-1.502,0-2.258,0
		c0-0.045,0-0.084,0-0.123c0-1.423,0-2.845,0-4.268c0-0.042-0.008-0.085-0.012-0.128c0.03,0.005,0.061,0.013,0.091,0.013
		c0.697,0.001,1.395,0.001,2.091,0c0.027,0,0.053-0.004,0.087-0.007c0-0.045,0-0.081,0-0.118c0-0.672-0.001-1.344,0.001-2.017
		c0-0.035,0.01-0.071,0.016-0.106c0.033-0.002,0.067-0.005,0.102-0.005c0.675,0,1.35,0,2.024,0c0.036,0,0.071,0,0.106,0
		c0-0.758,0-1.5,0-2.247c-0.75,0-1.494,0-2.243,0c-0.002,0.022-0.006,0.04-0.006,0.058c0,0.706-0.001,1.412,0.001,2.118
		c0,0.026,0.012,0.052,0.018,0.078c-0.03-0.003-0.061-0.008-0.092-0.008c-0.697,0-1.394,0-2.091,0c-0.026,0-0.054,0.003-0.093,0.005
		c0,0.04,0,0.076,0,0.112c0,0.676,0,1.351,0,2.025c0,0.034-0.007,0.067-0.01,0.101c-0.04,0.004-0.079,0.011-0.118,0.011
		c-1.416,0-2.832,0-4.248,0c-0.039,0-0.079,0-0.129,0c0,0.047,0,0.083,0,0.119c0,0.678,0.001,1.356,0,2.035
		c0,0.04-0.004,0.08-0.007,0.12l0.002-0.002c-0.035-0.006-0.071-0.016-0.106-0.016c-0.672-0.001-1.345,0-2.017,0
		c-0.036,0-0.073,0-0.118,0c0-1.506,0-3.002,0-4.508c0.747,0,1.491,0,2.25,0c0-0.758,0-1.506,0-2.254l-0.003,0.002
		c1.363,0,2.727-0.001,4.091-0.001c0.133,0,0.266,0,0.409,0c0-0.75,0-1.494,0-2.246c2.634,0,5.257,0,7.891,0
		c0,0.743,0,1.488,0,2.243c0.756,0,1.502,0,2.253,0c0,1.504,0,2.999,0,4.506c-0.747,0-1.491,0-2.242,0
		c-0.003,0.038-0.007,0.065-0.007,0.093c0,0.697,0,1.395,0,2.091c0,0.028,0.005,0.056,0.008,0.083l0.002-0.002
		c-0.216-0.002-0.433-0.006-0.649-0.007c-0.157-0.002-0.315,0-0.482,0c0,0.75,0,1.495,0,2.247c-0.754,0-1.498,0-2.251,0
		c-0.002-0.025-0.006-0.052-0.006-0.079c-0.001-0.69-0.001-1.381,0-2.071C129.669,79.402,129.676,79.376,129.68,79.35
		c0.031-0.007,0.063-0.017,0.096-0.017c0.303-0.002,0.606-0.001,0.91-0.001c0.032,0,0.065,0,0.1,0c0-0.758,0-1.502,0-2.25
		c-0.374,0-0.741,0-1.113,0c-0.002,0.032-0.005,0.06-0.005,0.087c0,0.693,0,1.387,0.001,2.08
		C129.669,79.282,129.677,79.316,129.68,79.35z"/>
	<path fill-rule="evenodd" clip-rule="evenodd" fill="#FFFFFF" d="M108.25,66.937c0.749,0,1.497,0,2.258,0c0-0.752,0-1.497,0-2.253
		c3.386,0,6.761,0,10.146,0c0-1.134,0-2.258,0-3.381c0.746,0,1.492,0,2.247,0c0,1.127,0,2.246,0,3.377c1.881,0,3.754,0,5.63,0
		c0.003,0.031,0.007,0.052,0.007,0.073c0.001,0.709,0.001,1.419,0,2.128c0,0.021-0.005,0.043-0.007,0.063l0.003-0.002
		c-0.031-0.002-0.062-0.006-0.093-0.006c-0.685,0-1.369,0-2.055,0c-0.03,0-0.06,0-0.098,0c0,0.753,0,1.495,0,2.244
		c-1.129,0-2.252,0-3.381,0c0-0.745,0-1.488,0-2.237c-0.752,0-1.497,0-2.253,0c0,0.744,0,1.489,0,2.239c-1.881,0-3.751,0-5.632,0
		c0-0.745,0-1.489,0-2.24c-0.755,0-1.5,0-2.257,0c0,0.746,0,1.491,0,2.24c-1.507,0-3.002,0-4.512,0c0-0.036,0-0.072,0-0.107
		c0-0.676,0-1.352,0-2.027C108.254,67.011,108.251,66.974,108.25,66.937z"/>
	<path fill-rule="evenodd" clip-rule="evenodd" fill="#FFFFFF" d="M120.655,61.305c-0.713,0-1.425-0.001-2.137-0.002
		c-0.037,0-0.073,0-0.113,0c0-1.507,0-3.005,0-4.509c0.748,0,1.49,0,2.247,0c0-0.758,0-1.509,0-2.26
		c0.613,0.001,1.227,0.002,1.84,0.003c0.133,0.001,0.266,0,0.405,0c0,1.505,0,3.002,0,4.511c-0.746,0-1.49,0-2.242,0
		C120.655,59.808,120.655,60.557,120.655,61.305z"/>
	<path fill-rule="evenodd" clip-rule="evenodd" fill="#FFFFFF" d="M128.53,66.944c0.034-0.002,0.067-0.006,0.102-0.006
		c0.682-0.001,1.363-0.001,2.045-0.001c0.033,0,0.067,0,0.112,0c0-0.749,0-1.494,0-2.246c0.756,0,1.5,0,2.256,0
		c0,0.745,0,1.49,0,2.245c0.757,0,1.502,0,2.253,0c0,0.751,0,1.493,0,2.243c-2.249,0-4.499,0-6.759,0c0-0.034,0-0.067,0-0.101
		c0-0.679,0-1.356,0-2.035c0-0.034-0.004-0.067-0.006-0.102L128.53,66.944z"/>
	<path fill-rule="evenodd" clip-rule="evenodd" fill="#FFFFFF" d="M120.656,72.571c-0.749,0-1.497,0-2.252,0
		c0-0.753,0-1.498,0-2.248c0.749,0,1.493,0,2.249,0c0,0.753,0,1.502,0,2.25L120.656,72.571z"/>
	<path fill-rule="evenodd" clip-rule="evenodd" fill="#FFFFFF" d="M120.645,79.351c0.026-0.006,0.053-0.018,0.079-0.018
		c0.709-0.001,1.418-0.001,2.127,0c0.012,0,0.024,0.002,0.044,0.004c0,0.747,0,1.493,0,2.245c-0.743,0-1.485,0-2.241,0
		c0-0.036,0-0.071,0-0.107c0-0.675,0-1.35-0.001-2.024c0-0.034-0.004-0.068-0.006-0.102L120.645,79.351z"/>
	<path fill-rule="evenodd" clip-rule="evenodd" fill="#FFFFFF" d="M133.055,79.342c0.027-0.003,0.055-0.009,0.082-0.009
		c0.69-0.001,1.382-0.001,2.072-0.001c0.027,0,0.055,0.003,0.088,0.005c0,0.75,0,1.494,0,2.244c-0.75,0-1.494,0-2.245,0
		c-0.002-0.032-0.005-0.06-0.005-0.087c0-0.69,0-1.382,0.001-2.072c0-0.027,0.006-0.055,0.009-0.082L133.055,79.342z"/>
	<path fill-rule="evenodd" clip-rule="evenodd" fill="#FFFFFF" d="M128.544,59.042c0-1.123,0-2.243,0-3.368c1.124,0,2.244,0,3.371,0
		c0,1.12,0,2.24,0,3.368C130.795,59.042,129.672,59.042,128.544,59.042z"/>
	<path fill-rule="evenodd" clip-rule="evenodd" fill="#FFFFFF" d="M112.759,78.202c-1.126,0-2.243,0-3.367,0
		c0-1.125,0-2.247,0-3.374c1.123,0,2.242,0,3.367,0C112.759,75.953,112.759,77.073,112.759,78.202z"/>
	<path fill-rule="evenodd" clip-rule="evenodd" fill="#FFFFFF" d="M109.391,55.671c1.124,0,2.242,0,3.373,0c0,0.036,0,0.069,0,0.103
		c0,1.057-0.001,2.113,0.002,3.17c0,0.085-0.023,0.108-0.108,0.107c-1.057-0.003-2.113-0.001-3.17-0.001c-0.03,0-0.061,0-0.097,0
		C109.391,57.921,109.391,56.801,109.391,55.671z"/>
</g>
</svg>
